<svg xmlns="http://www.w3.org/2000/svg" width="117" height="28" fill="none"><g fill="#BABABA"><path d="M45.036 21.348c-.693 2.105-2.705 3.205-4.873 3.205-3.614 0-5.606-2.269-5.606-5.754 0-3.186 2.237-5.649 5.547-5.649 2.12 0 3.975 1.005 4.825 2.993l-1.797.754c-.479-1.217-1.582-2.067-2.94-2.067-2.373 0-3.36 2.009-3.36 4.056s1.075 3.958 3.409 3.958c1.475 0 2.549-.888 3.057-2.22l1.738.724ZM50.28 16.105c2.49 0 4.405 1.728 4.405 4.21 0 2.48-2.012 4.228-4.492 4.228-2.481 0-4.503-1.709-4.503-4.19 0-2.54 2.12-4.248 4.59-4.248Zm2.295 4.229c0-1.497-.761-2.733-2.373-2.733-1.611 0-2.314 1.303-2.314 2.79s.771 2.665 2.363 2.665 2.325-1.303 2.325-2.723ZM56.12 16.278h1.964v1.246c.488-.937 1.484-1.42 2.548-1.42 1.065 0 2.003.445 2.384 1.449.625-.927 1.699-1.448 2.87-1.448 1.886 0 2.774 1.36 2.774 3.147v5.137h-1.953v-5.021c0-1.014-.517-1.67-1.563-1.67-1.142 0-1.757.782-1.757 1.834v4.857h-1.963v-5.021c0-1.014-.518-1.67-1.573-1.67-1.133 0-1.758.782-1.758 1.834v4.857h-1.972v-8.11ZM70.721 16.278h1.963v1.246c.489-.937 1.485-1.42 2.55-1.42 1.064 0 2.001.445 2.382 1.449.625-.927 1.7-1.448 2.871-1.448 1.885 0 2.774 1.36 2.774 3.147v5.137h-1.953v-5.021c0-1.014-.518-1.67-1.563-1.67-1.143 0-1.758.782-1.758 1.834v4.857h-1.963v-5.021c0-1.014-.517-1.67-1.572-1.67-1.133 0-1.758.782-1.758 1.834v4.857H70.73v-8.11h-.01ZM92.665 22.631c-.683 1.43-2.158 1.922-3.662 1.922-2.588 0-4.219-1.71-4.219-4.239 0-2.375 1.66-4.21 4.131-4.21 2.657 0 3.946 1.536 3.946 4.664h-6.075c0 1.371.801 2.375 2.295 2.375.889 0 1.621-.357 2.051-1.178l1.533.666Zm-1.758-3.137c-.058-1.227-.81-1.98-1.972-1.98-1.23 0-1.953.86-2.12 1.98h4.093ZM94.433 16.279h1.963v1.525c.557-1.11 1.445-1.641 2.695-1.641v1.796c-1.582 0-2.695.511-2.695 2.25v4.19h-1.963v-8.12ZM107.784 22.1c-.547 1.7-2.081 2.444-3.79 2.444-2.607 0-4.16-1.729-4.16-4.24 0-2.51 1.738-4.209 4.209-4.209 1.66 0 3.096.686 3.702 2.279l-1.583.685c-.332-.907-1.123-1.429-2.119-1.429-1.601 0-2.187 1.371-2.187 2.762 0 1.39.634 2.665 2.226 2.665 1.123 0 1.885-.618 2.227-1.632l1.475.676ZM116.681 22.631c-.684 1.43-2.159 1.922-3.663 1.922-2.588 0-4.219-1.71-4.219-4.239 0-2.375 1.661-4.21 4.131-4.21 2.657 0 3.946 1.536 3.946 4.664h-6.075c0 1.371.801 2.375 2.295 2.375.889 0 1.622-.357 2.051-1.178l1.534.666Zm-1.768-3.137c-.059-1.227-.811-1.98-1.973-1.98-1.23 0-1.953.86-2.119 1.98h4.092ZM35.143 9.79l3.614-5.156h-3.243V3.621h4.942v.502L36.93 9.279h3.418v1.013h-5.205V9.79ZM43.542 5.31c1.504 0 2.657 1.043 2.657 2.54 0 1.496-1.212 2.548-2.706 2.548s-2.715-1.033-2.715-2.52c0-1.544 1.28-2.568 2.764-2.568Zm1.387 2.54c0-.899-.46-1.652-1.436-1.652s-1.396.782-1.396 1.68c0 .898.468 1.603 1.426 1.603.996.01 1.406-.772 1.406-1.632ZM47.058 3.196h1.181v2.993c.323-.608.967-.879 1.65-.879 1.182 0 1.778.821 1.778 1.931v3.061h-1.191V7.357c0-.705-.371-1.09-1.055-1.09-.762 0-1.182.463-1.182 1.158v2.867h-1.181V3.196ZM55.203 5.31c1.504 0 2.656 1.043 2.656 2.54 0 1.496-1.21 2.548-2.705 2.548-1.494 0-2.715-1.033-2.715-2.52s1.28-2.568 2.764-2.568Zm1.387 2.54c0-.899-.46-1.652-1.436-1.652-.977 0-1.397.782-1.397 1.68 0 .898.47 1.603 1.426 1.603.987.01 1.407-.772 1.407-1.632ZM25.514 28H3.833a3.367 3.367 0 0 1-2.451-1.062 3.282 3.282 0 0 1-.87-2.5L1.959 7.57a.83.83 0 0 1 .898-.753c.46.038.801.434.762.888L2.183 24.572c-.04.464.117.908.43 1.256.321.338.751.53 1.22.53h21.671a1.642 1.642 0 0 0 1.65-1.786L25.534 5.32a1.633 1.633 0 0 0-.372-.908L23.355 2.24a1.652 1.652 0 0 0-1.289-.599H7.271c-.498 0-.967.222-1.29.599L4.81 3.66h17.676c.46 0 .83.366.83.82 0 .454-.37.82-.83.82H3.618c-.43 0-.81-.24-.986-.617a1.053 1.053 0 0 1 .146-1.15l1.934-2.336A3.295 3.295 0 0 1 7.27 0h14.795c.997 0 1.934.434 2.569 1.207l1.797 2.163c.43.521.683 1.139.742 1.805l1.64 19.262a3.245 3.245 0 0 1-.869 2.5A3.292 3.292 0 0 1 25.514 28Z"/><path d="M14.673 15.66a7.072 7.072 0 0 1-5.01-2.046 6.911 6.911 0 0 1-2.07-4.953c0-.454.37-.821.83-.821.459 0 .83.367.83.82 0 2.955 2.432 5.36 5.42 5.36 2.989 0 5.42-2.405 5.42-5.36 0-.453.372-.82.83-.82.46 0 .83.367.83.82 0 1.874-.732 3.63-2.07 4.954a7.072 7.072 0 0 1-5.01 2.046ZM5.942 18.576a.961.961 0 0 0 .967-.956.961.961 0 0 0-.967-.955.961.961 0 0 0-.966.955c0 .528.432.956.966.956ZM5.942 21.444a.961.961 0 0 0 .967-.956.961.961 0 0 0-.967-.956.961.961 0 0 0-.966.956c0 .528.432.956.966.956ZM5.942 24.322a.961.961 0 0 0 .967-.956.961.961 0 0 0-.967-.956.961.961 0 0 0-.966.956c0 .528.432.956.966.956Z"/></g></svg>