<svg xmlns="http://www.w3.org/2000/svg" width="91" height="27" fill="none"><g fill="#BABABA"><path d="M32.217 12.786h6.94v1.568h-4.914v2.79h3.994v1.483h-3.994v2.982H39.4v1.568h-7.183V12.786ZM42.809 19.28l-2.49-3.704h2.111l1.591 2.442 1.569-2.442h1.904l-2.475 3.577 2.739 4.026h-2.126l-1.769-2.733-1.826 2.733h-1.904l2.676-3.898ZM49.035 15.575h1.826v1.228c.528-.887 1.598-1.39 2.617-1.39 2.333 0 3.46 1.866 3.46 3.939 0 2.072-1.198 3.968-3.41 3.968-1.07 0-2.154-.426-2.667-1.334v3.797h-1.826V15.575Zm6.02 3.734c0-1.285-.641-2.478-2.14-2.478-1.497 0-2.118 1.2-2.118 2.57 0 1.37.656 2.499 2.175 2.499 1.612 0 2.083-1.192 2.083-2.591ZM65.261 21.523c-.634 1.342-2.004 1.796-3.409 1.796-2.411 0-3.93-1.605-3.93-3.968 0-2.23 1.548-3.94 3.845-3.94 2.467 0 3.673 1.434 3.673 4.366h-5.656c0 1.284.75 2.221 2.14 2.221.827 0 1.512-.334 1.911-1.107l1.426.632Zm-1.64-2.939c-.058-1.15-.757-1.852-1.834-1.852-1.148 0-1.818.802-1.975 1.852h3.809ZM66.908 15.575h1.826v1.207c.493-.938 1.519-1.37 2.582-1.37 1.834 0 2.66 1.284 2.66 3.009v4.756h-1.853v-4.58c0-1.064-.479-1.689-1.563-1.689-1.148 0-1.826.71-1.826 1.803v4.465h-1.826v-7.601ZM76.702 20.913c.285.745 1.063 1.1 1.89 1.1.592 0 1.328-.184 1.328-.902 0-.76-.827-.937-1.77-1.136-1.226-.256-2.602-.553-2.602-2.258 0-1.561 1.462-2.306 2.846-2.306 1.212 0 2.596.454 3.095 1.654l-1.355.582c-.3-.675-1.049-.93-1.676-.93s-1.191.241-1.191.86c0 .695.749.844 1.668 1.021 1.248.242 2.733.526 2.733 2.3 0 1.775-1.506 2.421-3.096 2.421-1.348 0-2.796-.454-3.274-1.817l1.404-.589ZM89.947 21.523c-.635 1.342-2.004 1.796-3.41 1.796-2.41 0-3.93-1.605-3.93-3.968 0-2.23 1.548-3.94 3.845-3.94 2.468 0 3.674 1.434 3.674 4.366H84.47c0 1.284.749 2.221 2.14 2.221.826 0 1.512-.334 1.91-1.107l1.427.632Zm-1.64-2.939c-.058-1.15-.757-1.852-1.834-1.852-1.148 0-1.819.802-1.976 1.852h3.81ZM32.23 9.497l3.36-4.833h-3.02v-.953h4.602v.475l-3.278 4.832h3.184v.953H32.23v-.474ZM40.051 5.292c1.396 0 2.47.976 2.47 2.378 0 1.402-1.13 2.386-2.517 2.386-1.388 0-2.527-.966-2.527-2.365 0-1.437 1.19-2.399 2.574-2.399Zm1.289 2.386c0-.842-.43-1.543-1.332-1.543-.901 0-1.298.735-1.298 1.574 0 .838.434 1.505 1.324 1.505.92-.001 1.306-.737 1.306-1.536ZM43.325 3.317h1.1v2.8c.296-.569.902-.825 1.537-.825 1.1 0 1.65.77 1.65 1.813V9.97h-1.109V7.212c0-.659-.343-1.018-.984-1.018-.705 0-1.096.432-1.096 1.087V9.97h-1.1V3.317h.002ZM50.9 5.292c1.396 0 2.47.976 2.47 2.378 0 1.402-1.13 2.386-2.517 2.386-1.389 0-2.527-.966-2.527-2.365 0-1.437 1.19-2.399 2.574-2.399Zm1.289 2.386c0-.842-.43-1.543-1.332-1.543-.902 0-1.298.735-1.298 1.574 0 .838.434 1.505 1.324 1.505.92-.001 1.306-.737 1.306-1.536ZM21.769 26.125c-2.03 0-4.002-.72-5.705-2.083a.414.414 0 0 0-.55.029l-1.494 1.486a1.951 1.951 0 0 1-2.746 0l-1.442-1.435a.413.413 0 0 0-.582 0l-1.46 1.45a1.904 1.904 0 0 1-2.683-.002c-.024-.024-.048-.048-.07-.074A19.52 19.52 0 0 1 2.317 3.19 4.63 4.63 0 0 1 6.403.75h14.328c1.45 0 2.817.957 3.85 2.696.934 1.574 1.561 3.735 1.767 6.082a2.31 2.31 0 0 1-2.308 2.51H16.6c.018.432.052.86.097 1.278 0 .011.002.021.003.032.087 1.274.328 2.532.719 3.748a13.19 13.19 0 0 0 1.481 3.138c.601.92 1.296 1.7 2.064 2.319s1.596 1.062 2.457 1.316a1.09 1.09 0 0 1-.115 2.12 8.752 8.752 0 0 1-1.537.136ZM6.404 2.287c-1.141-.001-2.189.624-2.725 1.625a17.977 17.977 0 0 0 2.507 20.559c.13.144.354.156.5.027l.014-.014 1.456-1.449a1.966 1.966 0 0 1 2.767 0l1.442 1.436a.4.4 0 0 0 .564 0l1.493-1.487a1.96 1.96 0 0 1 2.61-.14c1.259 1.008 2.683 1.595 4.15 1.719a9.362 9.362 0 0 1-1.19-.817 11.444 11.444 0 0 1-2.387-2.676c-1.397-2.138-2.242-4.766-2.445-7.6a19.827 19.827 0 0 1-.12-2.203c0-2.721.54-5.292 1.523-7.239a8.237 8.237 0 0 1 1.152-1.742H6.404ZM16.6 10.5h7.442a.772.772 0 0 0 .77-.838c-.186-2.123-.739-4.054-1.559-5.434-.742-1.25-1.638-1.94-2.52-1.94-.477 0-.954.197-1.417.585-.498.418-.973 1.057-1.372 1.847-.787 1.556-1.256 3.585-1.344 5.78Z"/><path d="M11.178 12.038H5.452a.77.77 0 1 1 0-1.538h5.726a.77.77 0 0 1 .773.769.77.77 0 0 1-.773.769ZM8.38 15.881H5.616a.77.77 0 0 1-.773-.769.77.77 0 0 1 .773-.769H8.38a.77.77 0 0 1 .772.77.77.77 0 0 1-.772.768ZM11.538 8.196h-5.39a.77.77 0 0 1-.773-.769.77.77 0 0 1 .773-.769h5.391a.77.77 0 0 1 .773.77.77.77 0 0 1-.774.768Z"/></g></svg>