<svg xmlns="http://www.w3.org/2000/svg" width="84" height="28" fill="none"><g fill="#BABABA"><path d="M33.517 13.62h2.048v10.628h-2.048V13.62ZM37.78 16.473h1.853v1.234c.5-.959 1.542-1.402 2.62-1.402 1.861 0 2.7 1.314 2.7 3.078v4.864h-1.881v-4.683c0-1.088-.485-1.728-1.586-1.728-1.165 0-1.853.727-1.853 1.844v4.567H37.78v-7.774ZM45.676 16.473h1.983l2.006 5.887 1.983-5.887h1.81l-2.794 7.775h-2.172l-2.816-7.775ZM58.17 16.306c2.352 0 4.162 1.655 4.162 4.037 0 2.38-1.904 4.05-4.242 4.05s-4.256-1.64-4.256-4.014c0-2.374 2.005-4.073 4.336-4.073Zm2.171 4.051c0-1.43-.724-2.62-2.244-2.62-1.52 0-2.186 1.248-2.186 2.671 0 1.423.732 2.555 2.23 2.555s2.2-1.249 2.2-2.606ZM64.67 13.184c.6 0 1.078.443 1.078 1.06s-.464 1.053-1.071 1.053c-.608 0-1.108-.45-1.108-1.06 0-.61.5-1.053 1.1-1.053Zm-.934 3.304h1.853v7.76h-1.853v-7.76ZM74.68 22.048c-.514 1.627-1.962 2.346-3.584 2.346-2.46 0-3.93-1.655-3.93-4.059 0-2.403 1.643-4.029 3.974-4.029 1.57 0 2.924.66 3.495 2.185l-1.499.66c-.31-.87-1.064-1.371-1.997-1.371-1.513 0-2.07 1.314-2.07 2.65 0 1.335.6 2.555 2.1 2.555 1.064 0 1.78-.589 2.099-1.561l1.412.624ZM83.076 22.556c-.644 1.372-2.034 1.837-3.46 1.837-2.447 0-3.988-1.642-3.988-4.059 0-2.28 1.57-4.029 3.902-4.029 2.504 0 3.728 1.466 3.728 4.465h-5.74c0 1.314.76 2.272 2.171 2.272.84 0 1.535-.341 1.94-1.132l1.447.646Zm-1.665-3.006c-.058-1.175-.767-1.894-1.86-1.894-1.165 0-1.846.82-2.005 1.895h3.865ZM33.459 10.256l3.41-4.942h-3.065v-.975h4.67v.486l-3.327 4.942h3.231v.975H33.46v-.486h-.001ZM41.395 5.957c1.417 0 2.507.997 2.507 2.43 0 1.435-1.147 2.441-2.555 2.441-1.409 0-2.564-.988-2.564-2.418 0-1.47 1.207-2.453 2.612-2.453Zm1.308 2.44c0-.862-.437-1.58-1.352-1.58-.914 0-1.317.753-1.317 1.61 0 .858.44 1.54 1.343 1.54.933-.001 1.326-.753 1.326-1.57ZM44.717 3.936h1.116V6.8c.301-.582.916-.843 1.561-.843 1.116 0 1.674.787 1.674 1.853v2.93h-1.125V7.92c0-.674-.349-1.041-1-1.041-.714 0-1.11.441-1.11 1.11v2.751h-1.117V3.936h.001ZM52.404 5.957c1.417 0 2.507.997 2.507 2.43 0 1.435-1.146 2.441-2.555 2.441-1.408 0-2.564-.988-2.564-2.418 0-1.43 1.208-2.453 2.612-2.453Zm1.308 2.44c0-.862-.436-1.58-1.351-1.58s-1.317.753-1.317 1.61c0 .858.44 1.54 1.343 1.54.933-.001 1.325-.753 1.325-1.57ZM13.55 11.373h3.656c.434 0 .784-.35.784-.785V6.92a.783.783 0 0 0-.784-.786H13.55a.783.783 0 0 0-.783.786v3.667c0 .435.35.785.783.785Zm.784-3.67h2.09V9.8h-2.09V7.703Z"/><path d="M26.716.875h-14.21c-2.45 0-4.441 1.998-4.441 4.454v2.897h-2.89c-2.44 0-4.425 1.99-4.425 4.438v10.598c0 2.447 1.985 4.438 4.425 4.438h15.27a7.002 7.002 0 0 0 4.99-2.072 7.04 7.04 0 0 0 2.065-5.003V1.66a.784.784 0 0 0-.784-.785ZM5.176 9.797h2.888v4.72H2.318v-1.855a2.865 2.865 0 0 1 2.857-2.865Zm.015 16.33h-.016a2.866 2.866 0 0 1-2.857-2.867v-7.172h5.748v7.172a2.866 2.866 0 0 1-2.858 2.866h-.017Zm20.741-5.502c0 3.034-2.46 5.504-5.487 5.504H8.583a4.427 4.427 0 0 0 1.05-2.866V5.328a2.88 2.88 0 0 1 2.873-2.882h13.427v18.18Z"/><path d="M13.55 16.088H22c.433 0 .782-.35.782-.785a.783.783 0 0 0-.783-.785H13.55a.783.783 0 0 0-.783.785c0 .435.35.785.783.785ZM13.55 20.807H22c.433 0 .782-.35.782-.786a.783.783 0 0 0-.783-.785H13.55a.783.783 0 0 0-.783.785c0 .434.35.786.783.786Z"/></g></svg>