<svg xmlns="http://www.w3.org/2000/svg" width="82" height="28" fill="none"><g fill="#BABABA"><path d="M34.496 13.764h3.784c2.295 0 4.088.907 4.088 3.386 0 2.722-2.181 3.311-4.514 3.311h-1.252v4.05h-2.115l.01-10.747Zm3.775 5.2c1.3 0 2.039-.523 2.039-1.823 0-1.3-.806-1.787-2.04-1.787h-1.659v3.62h1.66v-.01ZM47.944 23.548c-.607.795-1.489 1.113-2.465 1.113-1.499 0-2.675-.748-2.675-2.292 0-2.18 2.333-2.525 4.192-2.525h.939v-.122c0-1.122-.266-1.833-1.555-1.833-.778 0-1.49.393-1.774 1.122l-1.48-.636c.532-1.384 2.02-1.89 3.443-1.89 1.878 0 3.253.899 3.253 2.891v5.135h-1.878v-.963Zm-.967-2.554c-.882 0-2.276.103-2.276 1.291 0 .758.56 1.038 1.27 1.038.968 0 1.964-.495 1.964-1.562v-.767h-.958ZM54.033 23.706l-3.13-7.061h2.04l2.086 5.022 1.953-5.023h1.85l-4.382 10.56h-1.858l1.441-3.498ZM60.112 16.645h1.907v1.478c.54-1.076 1.403-1.59 2.617-1.59v1.74c-1.536 0-2.617.495-2.617 2.179v4.06h-1.907v-7.867ZM69.644 16.477c2.418 0 4.277 1.674 4.277 4.078 0 2.404-1.953 4.096-4.362 4.096-2.41 0-4.373-1.655-4.373-4.059s2.058-4.115 4.458-4.115Zm2.229 4.096c0-1.45-.74-2.647-2.305-2.647-1.565 0-2.248 1.263-2.248 2.704 0 1.44.75 2.581 2.296 2.581 1.545 0 2.257-1.263 2.257-2.638ZM75.363 13.465l1.906-.814v11.86h-1.906V13.465ZM79.47 13.465l1.906-.814v11.86h-1.907V13.465ZM34.506 10.36l3.509-4.995h-3.149v-.982h4.8v.486L36.24 9.864h3.32v.982h-5.055v-.486ZM42.671 6.02c1.46 0 2.58 1.01 2.58 2.46s-1.176 2.469-2.627 2.469c-1.451 0-2.637-1.001-2.637-2.441-.01-1.497 1.233-2.488 2.684-2.488Zm1.338 2.46c0-.87-.446-1.6-1.385-1.6-.939 0-1.356.758-1.356 1.628 0 .87.455 1.552 1.384 1.552.958.01 1.357-.748 1.357-1.58ZM46.085 3.97h1.148v2.9c.313-.589.939-.85 1.603-.85 1.147 0 1.726.794 1.726 1.87v2.965h-1.157V8.002c0-.683-.36-1.048-1.024-1.048-.74 0-1.139.45-1.139 1.123v2.778h-1.147l-.01-6.884ZM53.986 6.02c1.46 0 2.58 1.01 2.58 2.46s-1.177 2.469-2.628 2.469c-1.45 0-2.636-1.001-2.636-2.441s1.242-2.488 2.684-2.488Zm1.346 2.46c0-.87-.445-1.6-1.394-1.6-.948 0-1.356.758-1.356 1.628 0 .87.455 1.552 1.385 1.552.967.01 1.365-.748 1.365-1.58ZM21.105 28h-3.253c-1.337 0-2.419-1.066-2.419-2.385V21.62H3.293c-1.327 0-2.418-1.066-2.418-2.385V3.26C.875 1.941 1.966.875 3.294.875h17.81a7.29 7.29 0 0 1 5.15 2.105 7.09 7.09 0 0 1 2.134 5.078v12.768a7.09 7.09 0 0 1-2.133 5.079A7.281 7.281 0 0 1 21.105 28Zm-4.06-7.174v4.789a.8.8 0 0 0 .807.795h3.253c3.13 0 5.671-2.507 5.671-5.593v-8.269a7.29 7.29 0 0 1-5.671 2.675H17.86a.8.8 0 0 0-.806.795v4.808h-.01ZM3.295 2.466a.8.8 0 0 0-.806.794v15.976a.8.8 0 0 0 .806.795h12.14v-4.003c0-1.32 1.08-2.385 2.418-2.385h3.243c3.13 0 5.672-2.507 5.672-5.594s-2.542-5.584-5.672-5.584H3.294Z"/><path d="M21.105 11.5c-1.925 0-3.49-1.543-3.49-3.442 0-1.898 1.565-3.442 3.49-3.442 1.925 0 3.49 1.544 3.49 3.442 0 1.899-1.565 3.442-3.49 3.442Zm0-5.303c-1.034 0-1.878.832-1.878 1.852s.835 1.861 1.878 1.861a1.863 1.863 0 0 0 1.878-1.852c0-1.02-.844-1.861-1.878-1.861ZM11.346 7.235H6.509a.8.8 0 0 1-.806-.795.8.8 0 0 1 .806-.795h4.827a.8.8 0 0 1 .806.795c0 .44-.35.795-.796.795ZM9.733 10.406H6.51a.8.8 0 0 1-.806-.795.8.8 0 0 1 .806-.795h3.224a.8.8 0 0 1 .806.795.8.8 0 0 1-.806.795Z"/></g></svg>