<svg xmlns="http://www.w3.org/2000/svg" id="uuid-c2a26b17-97e9-4e87-ba45-69215d7a0f18" viewBox="0 0 964.89 249.16"><defs><style>.uuid-cf1414a1-a989-492f-b825-6d83df9e7abf{fill:#bababa;stroke-width:0}</style></defs><g id="uuid-02700650-b287-462d-9c14-babae1d2f083"><path d="M354.44 117.38h39.94c24.17 0 43.08 9.73 43.08 36.18 0 29.11-22.99 35.39-47.56 35.39h-13.18v43.32h-22.29V117.38Zm39.79 55.56c13.73 0 21.5-5.65 21.5-19.54s-8.48-19.15-21.5-19.15h-17.5v38.69h17.5ZM452.45 148.22h20.09v15.77c5.65-11.54 14.83-17.03 27.62-17.03v18.6c-16.24 0-27.62 5.34-27.62 23.31v43.4h-20.09v-84.05ZM560.75 221.99c-6.36 8.48-15.69 11.85-26.05 11.85-15.77 0-28.17-8-28.17-24.48 0-23.31 24.64-27 44.18-27h9.89v-1.33c0-12.01-2.83-19.62-16.4-19.62-8.16 0-15.7 4.24-18.68 12.01l-15.62-6.75c5.65-14.83 21.34-20.25 36.33-20.25 19.85 0 34.29 9.57 34.29 30.92v54.93h-19.78v-10.28h.01Zm-10.28-27.31c-9.26 0-24.01 1.1-24.01 13.81 0 8.08 5.89 11.07 13.42 11.07 10.2 0 20.72-5.34 20.72-16.72v-8.16h-10.13ZM677.51 208.49c-5.57 17.58-21.27 25.35-38.85 25.35-26.68 0-42.61-17.89-42.61-43.87s17.81-43.55 43.08-43.55c17.03 0 31.7 7.14 37.9 23.62l-16.25 7.14c-3.37-9.42-11.54-14.83-21.66-14.83-16.4 0-22.44 14.2-22.44 28.64s6.51 27.62 22.76 27.62c11.54 0 19.3-6.36 22.76-16.87l15.3 6.75ZM735.97 231.64c-4.32 1.26-8.79 2.04-13.81 2.04-16.01 0-25.5-8.32-25.5-25.03v-45.67h-11.3v-14.75h11.3v-17.34l20.09-8.71v26.05h18.52v14.75h-18.52v43.87c0 6.59 2.83 10.67 10.2 10.67 2.83 0 5.96-.63 9.03-1.65v15.77h-.01ZM763.36 112.67c6.51 0 11.69 4.79 11.69 11.46s-5.02 11.38-11.61 11.38-12.01-4.87-12.01-11.46 5.42-11.38 11.93-11.38Zm-10.12 35.71h20.09v83.89h-20.09v-83.89ZM871.89 208.49c-5.57 17.58-21.27 25.35-38.85 25.35-26.68 0-42.61-17.89-42.61-43.87s17.81-43.55 43.08-43.55c17.03 0 31.7 7.14 37.9 23.62l-16.25 7.14c-3.37-9.42-11.54-14.83-21.66-14.83-16.4 0-22.44 14.2-22.44 28.64s6.51 27.62 22.76 27.62c11.54 0 19.3-6.36 22.76-16.87l15.3 6.75ZM962.92 213.98c-6.98 14.83-22.05 19.85-37.51 19.85-26.53 0-43.24-17.74-43.24-43.87 0-24.64 17.03-43.55 42.3-43.55 27.15 0 40.42 15.85 40.42 48.26h-62.23c0 14.2 8.24 24.56 23.54 24.56 9.1 0 16.64-3.69 21.03-12.24l15.7 6.98h-.01Zm-18.05-32.49c-.63-12.71-8.32-20.48-20.17-20.48-12.63 0-20.01 8.87-21.74 20.48h41.91ZM354.6 81.02l36.97-53.42h-33.23V17.06h50.63v5.25L372.9 75.73h35.03v10.54h-53.32v-5.25ZM440.63 34.55c15.36 0 27.18 10.78 27.18 26.28s-12.43 26.38-27.7 26.38-27.8-10.68-27.8-26.14 13.09-26.52 28.32-26.52Zm14.18 26.38c0-9.31-4.73-17.06-14.65-17.06s-14.28 8.13-14.28 17.4 4.77 16.64 14.56 16.64 14.37-8.13 14.37-16.97ZM476.65 12.71h12.1v30.96c3.26-6.29 9.93-9.12 16.92-9.12 12.1 0 18.15 8.51 18.15 20.04v31.67h-12.2V55.77c0-7.28-3.78-11.25-10.83-11.25-7.75 0-12.05 4.77-12.05 12.01v29.73h-12.1V12.71h.01ZM560 34.55c15.36 0 27.18 10.78 27.18 26.28s-12.43 26.38-27.7 26.38-27.8-10.68-27.8-26.14S544.77 34.55 560 34.55Zm14.18 26.38c0-9.31-4.73-17.06-14.65-17.06s-14.28 8.13-14.28 17.4 4.77 16.64 14.56 16.64 14.37-8.13 14.37-16.97ZM289.7 57.19a8.557 8.557 0 0 0-3.97-5.18L197.65 1.15c-4.08-2.36-9.3-.96-11.65 3.12l-24.27 42.04-36.66-21.16a8.511 8.511 0 0 0-6.47-.85 8.557 8.557 0 0 0-5.18 3.97l-24.9 43.12-36.66-21.16a8.511 8.511 0 0 0-6.47-.85 8.557 8.557 0 0 0-5.18 3.97L7.94 109.24c-16.37 28.36-6.62 64.75 21.74 81.12l87.17 50.33c.08.05.17.1.25.14l.66.39c9.33 5.39 19.52 7.95 29.59 7.94 20.54 0 40.54-10.65 51.53-29.68l89.97-155.83a8.511 8.511 0 0 0 .85-6.47ZM123.92 44.2l73.31 42.33-49.17 85.16-29.27-16.9 24.27-42.04c2.36-4.08.96-9.3-3.12-11.65l-36.66-21.16 20.63-35.73ZM90.25 205.65 38.21 175.6c-9.79-5.65-16.79-14.78-19.72-25.7s-1.42-22.33 4.23-32.12l28.01-48.51 73.31 42.33-24.27 42.04-3.73 6.46c-8.28 14.33-9.88 30.72-5.77 45.54h-.02Zm93.86 5.32c-5.65 9.79-14.78 16.79-25.7 19.72s-22.33 1.42-32.12-4.23-16.79-14.78-19.72-25.7c-2.83-10.58-1.51-21.61 3.71-31.19l36.64 21.16c1.31.76 2.78 1.14 4.27 1.14.74 0 1.48-.1 2.21-.29a8.557 8.557 0 0 0 5.18-3.97l57.7-99.94c2.36-4.08.96-9.3-3.12-11.65L176.5 54.86l20.01-34.66 73.31 42.33-85.7 148.44h-.01Z" class="uuid-cf1414a1-a989-492f-b825-6d83df9e7abf"/></g></svg>