<svg xmlns="http://www.w3.org/2000/svg" width="17" height="20" fill="none"><path fill="#BABABA" d="M16.445 15.586a10.87 10.87 0 0 1-1.073 1.933c-.563.807-1.025 1.365-1.38 1.674-.552.509-1.143.77-1.776.784-.454 0-1.002-.13-1.64-.392-.639-.262-1.227-.392-1.764-.392-.538 0-1.169.13-1.815.392-.648.263-1.17.4-1.569.413-.606.026-1.21-.242-1.815-.805-.385-.337-.867-.915-1.444-1.733-.62-.874-1.129-1.888-1.528-3.043C.214 13.169 0 11.96 0 10.79c0-1.34.289-2.496.867-3.465a5.094 5.094 0 0 1 1.816-1.843 4.876 4.876 0 0 1 2.456-.695c.482 0 1.114.15 1.899.444.783.295 1.286.444 1.506.444.165 0 .724-.175 1.67-.523.896-.323 1.652-.457 2.27-.405 1.678.136 2.939.8 3.777 1.995-1.5.912-2.243 2.189-2.228 3.827.014 1.276.475 2.338 1.382 3.181.412.392.87.694 1.381.909-.11.322-.227.63-.351.927ZM12.597.4c0 1-.365 1.934-1.09 2.799C10.63 4.226 9.57 4.82 8.42 4.726a3.14 3.14 0 0 1-.023-.379c0-.96.417-1.987 1.157-2.828.37-.425.84-.779 1.41-1.061C11.532.18 12.07.026 12.576 0c.015.134.02.267.02.4Z"/></svg>