<svg xmlns="http://www.w3.org/2000/svg" width="17" height="20" fill="none"><path fill="#000" d="M3.37 5.208c.322-1.168 1.1-2.167 2.145-2.824l-.2-.364c-1.523.95-2.527 2.573-2.527 4.41v.037a1.7 1.7 0 0 1 .58-1.26l.001.001Zm3.196-3.331a5.566 5.566 0 0 1 1.88-.324 5.54 5.54 0 0 1 1.88.324l.204-.37a5.963 5.963 0 0 0-2.083-.373c-.736 0-1.439.132-2.084.373l.203.37Zm4.811.508c1.044.657 1.822 1.656 2.146 2.824a1.7 1.7 0 0 1 .58 1.26v-.037c0-1.838-1.004-3.46-2.527-4.41l-.2.364Z"/><path fill="#000" d="M13.713 7.826c0-.402.148-.77.392-1.052V6.47a1.7 1.7 0 0 0-.58-1.26c.108.39.166.796.166 1.217h.349v.418h-.35v7.661c0 .705-.567 1.277-1.266 1.277h-.427v.418h.427a1.69 1.69 0 0 0 1.682-1.696v-.69a1.602 1.602 0 0 1-.392-1.053V7.825l-.001.001Zm-9.242 7.958c-.7 0-1.267-.573-1.267-1.278V6.844h-.112v-.417h.112c0-.42.058-.828.165-1.217-.35.307-.575.758-.58 1.26v.304c.245.282.393.649.393 1.052v4.937c0 .402-.148.77-.392 1.053v.69c0 .935.755 1.697 1.682 1.697H4.9v-.418h-.425l-.003-.002Zm4.344-.001h-.738v.42h.738v-.42Z"/><path fill="#BABABA" d="M5.34.506a.167.167 0 1 0-.293.163l.829 1.51a5.21 5.21 0 0 1 .3-.148L5.339.506h.001Z"/><path fill="#000" d="M5.514 2.385c.118-.073.237-.142.36-.206L5.047.669A.166.166 0 0 1 5.03.543.164.164 0 0 1 5.11.44a.166.166 0 0 1 .227.066l.839 1.525c.127-.057.257-.108.389-.156l-.204-.369-.66-1.202a.58.58 0 0 0-1.069.123.587.587 0 0 0 .05.447l.633 1.148.2.364Z"/><path fill="#BABABA" d="M15.302 6.641c-.647 0-1.175.531-1.175 1.186v4.937a1.18 1.18 0 0 0 1.175 1.185c.65 0 1.176-.53 1.176-1.185V7.827c0-.653-.527-1.186-1.176-1.186Z"/><path fill="#000" d="M15.302 6.223a1.602 1.602 0 0 0-1.59 1.603v4.937a1.604 1.604 0 0 0 1.59 1.604c.878 0 1.59-.72 1.59-1.604V7.826c0-.884-.712-1.603-1.59-1.603Zm1.176 6.54c0 .653-.527 1.186-1.176 1.186a1.181 1.181 0 0 1-1.175-1.186V7.826a1.18 1.18 0 0 1 1.175-1.185c.65 0 1.176.53 1.176 1.185v4.937Z"/><path fill="#BABABA" d="M9.23 18.397c0 .653.527 1.185 1.176 1.185a1.18 1.18 0 0 0 1.176-1.185v-2.614h-2.35v2.614H9.23Z"/><path fill="#000" d="M11.581 15.783v2.614c0 .653-.527 1.185-1.176 1.185a1.181 1.181 0 0 1-1.176-1.185v-2.614h-.414v2.614c0 .884.713 1.603 1.59 1.603.878 0 1.59-.719 1.59-1.603v-2.614h-.414Z"/><path fill="#BABABA" d="M11.845.67a.166.166 0 0 0 .015-.13.164.164 0 0 0-.08-.1.167.167 0 0 0-.227.066l-.84 1.525c.103.046.203.094.301.146l.83-1.509Z"/><path fill="#000" d="M10.327 1.876c.132.047.262.1.389.155l.839-1.525a.167.167 0 0 1 .307.035.166.166 0 0 1-.015.128l-.829 1.51c.123.064.243.132.36.206l.2-.365.632-1.148a.587.587 0 0 0-.227-.798.58.58 0 0 0-.791.228l-.661 1.203-.204.37v.001Z"/><path fill="#BABABA" d="M1.59 6.64c-.648 0-1.176.531-1.176 1.186v4.937c0 .653.527 1.185 1.176 1.185a1.18 1.18 0 0 0 1.176-1.185V7.826c0-.653-.527-1.186-1.176-1.186Z"/><path fill="#000" d="M3.18 7.826a1.604 1.604 0 0 0-1.59-1.603C.713 6.223 0 6.942 0 7.826v4.937c0 .885.713 1.604 1.59 1.604a1.602 1.602 0 0 0 1.59-1.604V7.826Zm-.414 4.937c0 .653-.527 1.186-1.176 1.186a1.181 1.181 0 0 1-1.175-1.186V7.826A1.18 1.18 0 0 1 1.59 6.641c.65 0 1.176.53 1.176 1.185v4.937Z"/><path fill="#BABABA" d="M5.312 18.397c0 .653.527 1.185 1.176 1.185.649 0 1.176-.531 1.176-1.185v-2.614h-2.35v2.614h-.002Z"/><path fill="#000" d="M7.663 15.783v2.614c0 .653-.527 1.185-1.176 1.185a1.181 1.181 0 0 1-1.176-1.185v-2.614h-.415v2.614c0 .884.714 1.603 1.59 1.603.878 0 1.591-.719 1.591-1.603v-2.614h-.414Z"/><path fill="#BABABA" d="M11.377 2.385a5.428 5.428 0 0 0-1.05-.509 5.572 5.572 0 0 0-1.88-.323 5.571 5.571 0 0 0-2.57.625 5.414 5.414 0 0 0-.36.207C4.47 3.042 3.693 4.04 3.37 5.209a4.575 4.575 0 0 0-.165 1.216h10.486c0-.42-.059-.827-.166-1.216-.323-1.168-1.1-2.167-2.147-2.824h-.002ZM6.144 3.7c.192 0 .346.156.346.348a.346.346 0 0 1-.346.349.346.346 0 0 1-.345-.349c0-.192.154-.348.345-.348Zm5.186.348a.346.346 0 0 1-.345.349.346.346 0 0 1-.346-.349.346.346 0 1 1 .691 0ZM3.204 6.843v7.661c0 .706.567 1.278 1.267 1.278h7.95c.7 0 1.267-.572 1.267-1.278V6.843H3.204Z"/><path fill="#000" d="M3.205 6.425H3.09v.42h10.95v-.42H3.205ZM6.144 4.4a.348.348 0 0 0 .346-.35.347.347 0 0 0-.346-.348.347.347 0 0 0-.345.349c0 .193.154.349.345.349Zm4.84 0c.19 0 .346-.156.346-.35a.347.347 0 0 0-.346-.348.347.347 0 0 0-.345.349c0 .193.154.349.345.349Z"/></svg>