<svg xmlns="http://www.w3.org/2000/svg" viewBox="0 0 206.38 206.4"><path d="M206.38 53.88v98.63c0 29.71-24.17 53.88-53.87 53.88H53.87C24.16 206.39 0 182.21 0 152.51V53.88C0 24.18 24.17 0 53.87 0h98.63c29.71 0 53.87 24.18 53.87 53.88Z"/><path d="M41.38 82.81h25.59v84.44H41.38V82.81Zm42.51 26.2c0-8.89 0-19.66-.2-27.45h24.8c.55 2.8.9 9.1.99 12.37 3.72-7.24 11.72-14.86 30.49-14.86 20.47 0 27.14 14.79 27.14 41.37v46.82h-25.59v-43.89c0-12.88-5.16-21.97-13.47-21.97-14.42 0-18.57 9.2-18.57 28.32v37.54H83.89v-58.24Z" fill="#fff"/><circle cx="54.18" cy="54.05" r="14.91" fill="#fff"/></svg>
