<svg xmlns="http://www.w3.org/2000/svg" xml:space="preserve" viewBox="0 0 512 512"><g fill="#707070"><path fill="#707070" d="M209.4 279.5c10.2 21 21.2 39.7 33.1 56.2-10.5 16.6-23.3 32.1-40.4 44.2-15.2 10.8-39.2 23.9-91.2 29.6-32.2 3.5-61.4 3.8-94.2 3.8H.7v-56H9c34.4 0 64.2 0 95.9-3.5 21.8-2.4 46.6-6.6 64.9-19.6 17.3-12.2 28.8-32.3 39.6-54.7zM276.8 244.4c1.9 3.9 3.8 7.7 5.7 11.4-1.9 3.7-3.8 7.5-5.7 11.4-2.8 5.8-5.5 11.7-8.3 17.9-4.7 10.2-9.5 20.8-15 31.4-9.6-14.3-18.6-30.2-27.1-47.8-2.1-4.3-4.1-8.6-6-12.8 2-4.3 4-8.6 6-12.8 8.5-17.6 17.5-33.5 27.1-47.8 5.5 10.5 10.4 21.1 15 31.3 2.9 6.1 5.6 12 8.3 17.8zM433.4 100.8l-8.2 55.4c-8.8-1.3-18-1.2-27.3.2-20.5 3.1-41.5 12.6-59.6 27.2-16 12.9-30.5 29.8-43.8 51.2-2.6-5.4-5.1-10.9-7.8-16.7-5.9-12.9-12.3-26.9-20.1-40.9 11.3-14.3 23.5-26.6 36.5-37.2 28.6-23.1 61.8-37 94.8-40.2 11.9-1 23.9-.8 35.5 1z"/></g><path fill="#707070" d="M397.9 193.2V61.4l114.2 65.9z"/><g fill="#707070"><path fill="#707070" d="m454.6 417.4-24.1 13.9c-6 .7-12 1-18.1 1-4.8 0-9.7-.2-14.5-.6v-20.1c-6.7-.6-13.4-1.7-20-3.2-26.2-5.9-52-18.5-74.8-36.9-18.2-14.7-34.6-32.9-49.6-55-9.6-14.3-18.6-30.2-27.1-47.8-2.1-4.3-4.1-8.6-6-12.8-.9-2-1.9-4-2.8-6-13.4-29.3-26.1-57-47.9-72.5-18.2-13-43-17.2-64.9-19.6-31.7-3.5-61.5-3.5-95.9-3.5H.7v-56h8.2c36.1 0 67.3 0 102.1 3.8 52 5.7 76 18.8 91.2 29.6 23.5 16.7 39 39.9 51.3 63.5 5.5 10.5 10.4 21.1 15 31.3 2.9 6.2 5.5 12.1 8.3 17.9 1.9 3.9 3.8 7.7 5.7 11.4 16.5 31.6 34.8 55.2 55.7 72.1 12.3 9.9 25.8 17.4 39.6 22.2 6.6 2.3 13.4 4 20 5v-20.3c5 1 9.9 1.4 14.8 1.4 3.3 0 6.5-.2 9.6-.7l4.5-.7 17.1 9.9 10.8 72.7z"/><path d="M433.4 410.8c-6.9 1-14 1.5-21 1.5-4.8 0-9.7-.2-14.5-.7-6.7-.6-13.4-1.7-20-3.2-26.2-5.9-52-18.5-74.8-36.9-18.2-14.7-34.6-32.9-49.6-55-9.6-14.3-18.6-30.2-27.1-47.8-2.1-4.3-4.1-8.6-6-12.8-.9-2-1.9-4-2.8-6-13.4-29.3-26.1-57-47.9-72.5-18.2-13-43-17.2-64.9-19.6-31.7-3.5-61.5-3.5-95.9-3.5H.7v-56h8.2c36.1 0 67.3 0 102.1 3.8 52 5.7 76 18.8 91.2 29.6 23.5 16.7 39 39.9 51.3 63.5 5.5 10.5 10.4 21.1 15 31.3 2.9 6.2 5.5 12.1 8.3 17.9 1.9 3.9 3.8 7.7 5.7 11.4 16.5 31.6 34.8 55.2 55.7 72.1 12.3 9.9 25.8 17.4 39.6 22.2 6.6 2.3 13.4 4 20 5 9.3 1.4 18.5 1.6 27.3.2l8.3 55.5z"/><path d="m512.1 384.2-57.5 33.2-24.1 13.9-32.6 18.8v-38.5c-6.7-.6-13.4-1.7-20-3.2v-58.3c6.6 2.3 13.4 4 20 5v-36.8l28.8 16.6 17.1 9.9 68.3 39.4z"/><path d="m512.1 384.2-57.5 33.2-24.1 14-32.6 18.8V318.3l28.8 16.7 17.1 9.9z"/></g></svg>