<svg xmlns="http://www.w3.org/2000/svg" xml:space="preserve" viewBox="0 0 512 512"><path fill="#707070" d="M256.4 511.8c-68.4 0-132.7-26.6-181-75C27 388.4.4 324.2.4 255.8s26.6-132.7 75-181 112.6-75 181-75 132.7 26.6 181 75c48.4 48.4 75 112.6 75 181s-26.6 132.7-75 181c-48.3 48.4-112.6 75-181 75zm0-456c-110.3 0-200 89.7-200 200s89.7 200 200 200 200-89.7 200-200-89.7-200-200-200z"/><path fill="#707070" d="M291.6 500.7 246.9 467c26.7-35.4 71.5-109.9 71.5-211.1 0-26.4-3.5-54.8-10.1-82-11.7-48-32.5-91.8-62-130.2l44.4-34.1c34.2 44.6 58.5 95.4 72 151.1 7.7 31.4 11.7 64.4 11.7 95.2-.1 117.5-51.9 203.8-82.8 244.8z"/><path fill="#707070" d="M221.2 500.8c-33.8-44.4-57.8-95-71.2-150.3-7.6-31.3-11.6-64-11.6-94.7 0-50.9 9.6-100.8 28.6-148.5 13.1-32.8 30.2-63.8 50.9-92l45.2 33.1c-17.7 24.1-32.9 51.6-44 79.6-16.3 41.1-24.6 84.1-24.6 127.8 0 26.3 3.5 54.5 10 81.5 11.6 47.7 32.2 91.3 61.3 129.5l-44.6 34z"/><path fill="#707070" d="M28.4 227.8h456v56h-456z"/></svg>