<svg xmlns="http://www.w3.org/2000/svg" width="79" height="28" fill="none"><path fill="#BABABA" d="M35.059 13.305h4.373c2.028 0 3.689.647 3.689 2.945 0 1.206-.618 2.017-1.787 2.355 1.507.3 2.25 1.14 2.25 2.675 0 2.365-1.776 3.109-3.852 3.109h-4.664l-.01-11.084Zm4.113 4.654c1.207 0 1.883-.358 1.883-1.661 0-1.217-.87-1.487-1.922-1.487h-1.98v3.148h2.019Zm.29 4.933c1.226 0 2.008-.473 2.008-1.747 0-1.41-.966-1.758-2.154-1.758h-2.162v3.505h2.307ZM48.924 16.105c2.462 0 4.354 1.728 4.354 4.21 0 2.549-1.989 4.229-4.441 4.229-2.472 0-4.451-1.71-4.451-4.19 0-2.54 2.105-4.249 4.538-4.249Zm2.278 4.229c0-1.497-.753-2.732-2.346-2.732-1.641 0-2.288 1.303-2.288 2.79 0 1.439.763 2.665 2.336 2.665 1.613 0 2.298-1.304 2.298-2.723ZM58.443 16.105c2.462 0 4.355 1.728 4.355 4.21 0 2.549-1.99 4.229-4.442 4.229-2.471 0-4.45-1.71-4.45-4.19 0-2.54 2.094-4.249 4.537-4.249Zm2.279 4.229c0-1.497-.753-2.732-2.346-2.732-1.642 0-2.289 1.303-2.289 2.79 0 1.439.763 2.665 2.337 2.665 1.612 0 2.298-1.304 2.298-2.723ZM64.218 12.61h1.94v7.212l2.945-3.534h2.124l-3.215 3.718 3.466 4.393h-2.24l-3.08-3.959V24.4h-1.94v-11.79ZM73.458 21.975c.299.792 1.13 1.178 2.008 1.178.628 0 1.41-.193 1.41-.965 0-.811-.879-1.005-1.883-1.217-1.304-.27-2.761-.589-2.761-2.414 0-1.67 1.554-2.462 3.022-2.462 1.284 0 2.761.483 3.292 1.767l-1.439.618c-.318-.724-1.11-.994-1.776-.994-.647 0-1.265.26-1.265.917 0 .743.792.898 1.776 1.09 1.323.262 2.907.56 2.907 2.453 0 1.912-1.603 2.588-3.293 2.588-1.429 0-2.974-.483-3.475-1.94l1.477-.619ZM35.078 9.79l3.572-5.156h-3.205V3.621h4.886v.502l-3.486 5.156h3.38v1.013h-5.147V9.79ZM43.382 5.31c1.487 0 2.626 1.043 2.626 2.54 0 1.535-1.197 2.549-2.674 2.549-1.487 0-2.685-1.033-2.685-2.52 0-1.545 1.265-2.568 2.733-2.568Zm1.37 2.54c0-.898-.453-1.651-1.409-1.651-.985 0-1.38.782-1.38 1.68 0 .869.463 1.603 1.41 1.603.974.01 1.38-.773 1.38-1.632ZM46.867 3.196h1.169v2.993c.318-.608.955-.879 1.631-.879 1.169 0 1.757.821 1.757 1.931v3.061h-1.178V7.357c0-.705-.366-1.081-1.042-1.081-.753 0-1.159.463-1.159 1.158v2.868h-1.168l-.01-7.106ZM54.91 5.31c1.487 0 2.626 1.043 2.626 2.54 0 1.535-1.197 2.549-2.674 2.549-1.487 0-2.684-1.033-2.684-2.52 0-1.545 1.265-2.568 2.732-2.568Zm1.371 2.54c0-.898-.454-1.651-1.42-1.651-.984 0-1.38.782-1.38 1.68 0 .869.464 1.603 1.41 1.603.975.01 1.39-.773 1.39-1.632ZM20.788 28H1.662a.82.82 0 0 1-.821-.82v-6.952c0-1.516.965-2.868 2.404-3.36l21.203-7.28a4.094 4.094 0 0 0 2.761-3.862 4.092 4.092 0 0 0-4.084-4.085H2.482v13.537a.82.82 0 1 1-1.641 0V.82A.82.82 0 0 1 1.66 0h21.454a5.732 5.732 0 0 1 5.726 5.726 5.727 5.727 0 0 1-3.872 5.416l-21.193 7.28a1.924 1.924 0 0 0-1.294 1.815v6.122h18.306a6.377 6.377 0 0 0 4.538-1.883 6.378 6.378 0 0 0 1.883-4.528 6.373 6.373 0 0 0-.985-3.418 6.36 6.36 0 0 0-2.626-2.347.82.82 0 0 1-.377-1.1.818.818 0 0 1 1.101-.377 8.039 8.039 0 0 1 3.293 2.955 8.042 8.042 0 0 1 1.245 4.296c0 2.153-.84 4.171-2.356 5.697C24.96 27.16 22.941 28 20.788 28Z"/><path fill="#BABABA" d="M10.07 11.48a3.286 3.286 0 0 1-3.282-3.283 3.28 3.28 0 0 1 3.283-3.282 3.28 3.28 0 0 1 3.283 3.282 3.286 3.286 0 0 1-3.283 3.283Zm0-4.924a1.64 1.64 0 0 0-1.64 1.641 1.64 1.64 0 0 0 1.64 1.642 1.64 1.64 0 0 0 1.642-1.642c0-.907-.743-1.641-1.641-1.641ZM18.297 23.066a3.286 3.286 0 0 1-3.282-3.283 3.28 3.28 0 0 1 3.282-3.283 3.28 3.28 0 0 1 3.283 3.283 3.286 3.286 0 0 1-3.283 3.283Zm0-4.924a1.64 1.64 0 0 0-1.641 1.641 1.64 1.64 0 0 0 1.641 1.642 1.64 1.64 0 0 0 1.642-1.642c0-.907-.744-1.641-1.642-1.641Z"/></svg>