<svg xmlns="http://www.w3.org/2000/svg" width="102" height="28" fill="none"><g fill="#BABABA"><path d="M43.365 21.555c-.664 2.04-2.591 3.106-4.668 3.106-3.46 0-5.368-2.198-5.368-5.575 0-3.087 2.142-5.472 5.312-5.472 2.03 0 3.807.973 4.621 2.9l-1.721.73c-.458-1.18-1.515-2.002-2.815-2.002-2.273 0-3.218 1.945-3.218 3.928 0 1.983 1.029 3.835 3.264 3.835 1.413 0 2.442-.86 2.928-2.151l1.665.701ZM44.768 13.09h1.88v4.808c.505-.973 1.543-1.412 2.628-1.412 1.88 0 2.815 1.319 2.815 3.114v4.92h-1.89v-4.733c0-1.131-.588-1.749-1.683-1.749-1.206 0-1.87.74-1.87 1.862v4.62h-1.88V13.09ZM61.099 22.8c-.655 1.384-2.058 1.852-3.507 1.852-2.48 0-4.041-1.656-4.041-4.107 0-2.3 1.59-4.078 3.956-4.078 2.544 0 3.78 1.488 3.78 4.518h-5.819c0 1.328.767 2.301 2.198 2.301.852 0 1.553-.346 1.965-1.141l1.468.655Zm-1.684-3.04c-.056-1.188-.776-1.918-1.889-1.918-1.179 0-1.87.833-2.03 1.918h3.92ZM69.891 22.285c-.524 1.646-1.992 2.376-3.63 2.376-2.496 0-3.984-1.674-3.984-4.106s1.665-4.078 4.032-4.078c1.59 0 2.965.664 3.545 2.207l-1.516.664c-.318-.88-1.075-1.384-2.03-1.384-1.533 0-2.095 1.328-2.095 2.675 0 1.347.609 2.581 2.133 2.581 1.076 0 1.805-.598 2.133-1.58l1.412.645ZM71.378 13.09h1.88v6.987l2.853-3.423h2.058l-3.115 3.601 3.358 4.256h-2.17l-2.984-3.835v3.835h-1.88V13.09ZM83.051 16.477c2.385 0 4.219 1.674 4.219 4.078 0 2.404-1.927 4.096-4.303 4.096s-4.312-1.655-4.312-4.059 2.03-4.115 4.396-4.115Zm2.198 4.096c0-1.45-.73-2.647-2.272-2.647-1.544 0-2.217 1.263-2.217 2.704 0 1.44.739 2.581 2.263 2.581 1.525 0 2.227-1.263 2.227-2.638ZM93.91 23.277c-.495.954-1.505 1.384-2.59 1.384-1.805 0-2.76-1.188-2.76-2.975v-5.032h1.88v4.799c0 1.075.496 1.73 1.59 1.73 1.18 0 1.89-.758 1.89-1.88v-4.658h1.87v7.866h-1.87v-1.234h-.01ZM101.824 24.455a4.396 4.396 0 0 1-1.291.188c-1.497 0-2.385-.777-2.385-2.339V18.03H97.09v-1.385h1.057v-1.618l1.88-.814v2.442h1.73v1.384h-1.73v4.106c0 .617.262 1 .954 1 .262 0 .561-.055.842-.149v1.46ZM33.89 10.36l3.46-4.995h-3.105v-.982h4.733v.486L35.6 9.864h3.274v.982H33.89v-.486ZM41.943 6.02c1.44 0 2.544 1.01 2.544 2.46s-1.16 2.469-2.59 2.469c-1.432 0-2.601-1.001-2.601-2.441s1.216-2.488 2.647-2.488Zm1.328 2.46c0-.87-.44-1.6-1.365-1.6-.926 0-1.338.758-1.338 1.628 0 .87.449 1.552 1.366 1.552.935.01 1.337-.748 1.337-1.58ZM45.31 3.97h1.132v2.9c.309-.589.926-.85 1.581-.85 1.132 0 1.702.794 1.702 1.87v2.965h-1.14V8.002c0-.683-.356-1.048-1.01-1.048-.73 0-1.123.45-1.123 1.123v2.778H45.32l-.01-6.884ZM53.102 6.02c1.44 0 2.544 1.01 2.544 2.46s-1.16 2.469-2.591 2.469c-1.431 0-2.6-1.001-2.6-2.441S51.68 6.02 53.102 6.02Zm1.328 2.46c0-.87-.44-1.6-1.375-1.6s-1.338.758-1.338 1.628c0 .87.45 1.552 1.366 1.552.954.01 1.347-.748 1.347-1.58ZM4.707 20.742a.794.794 0 0 1-.795-.795V4.327A3.447 3.447 0 0 1 7.354.874h13.88a3.445 3.445 0 0 1 3.443 3.442v5.837a.794.794 0 1 1-1.59 0V4.317c0-1.02-.833-1.852-1.852-1.852H7.355c-1.02 0-1.853.833-1.853 1.852v15.62a.796.796 0 0 1-.795.805ZM21.234 24.82h-3.89a.794.794 0 1 1 0-1.59h3.89c1.02 0 1.852-.833 1.852-1.852v-6.21a.794.794 0 1 1 1.59 0v6.21a3.445 3.445 0 0 1-3.442 3.442Z"/><path d="M15.304 7.235H9.477a.794.794 0 1 1 0-1.59h5.827a.794.794 0 1 1 0 1.59ZM13.714 10.406H9.477a.794.794 0 1 1 0-1.59h4.237a.794.794 0 1 1 0 1.59ZM7.85 28c-.487 0-.954-.224-1.254-.617-2.768-3.592-5.5-5.687-5.527-5.697a.797.797 0 0 1-.319-.626.82.82 0 0 1 .31-.636c.046-.038 1.262-.982 3.189-1.235a7.554 7.554 0 0 1 3.395.337c1.141.374 2.254 1.01 3.34 1.908 2.347-3.564 5.396-7.894 7.81-10.345 1.309-1.328 2.74-1.964 4.255-1.88.945.056 1.87.384 2.778.982a8.041 8.041 0 0 1 1.852 1.712c.15.196.206.449.15.692a.765.765 0 0 1-.468.533c-1.777.748-5.846 5.827-10.616 13.263a3.437 3.437 0 0 1-2.9 1.59h-2.057a.794.794 0 1 1 0-1.59h2.057c.636 0 1.216-.318 1.562-.85 1.039-1.619 3.106-4.762 5.257-7.633 2.16-2.872 3.863-4.752 5.163-5.697-1.253-1.215-2.47-1.384-2.853-1.412-1.038-.056-2.058.412-3.04 1.412-3.722 3.78-9.11 12.319-10.7 15.013A1.564 1.564 0 0 1 7.962 28H7.85Zm-4.892-6.828a37.105 37.105 0 0 1 4.901 5.229c.477-.795 1.272-2.096 2.254-3.63-.972-.823-1.964-1.412-2.965-1.74a6.015 6.015 0 0 0-2.684-.27 5.976 5.976 0 0 0-1.506.411Z"/></g></svg>