<svg xmlns="http://www.w3.org/2000/svg" width="99" height="28" fill="none"><g fill="#BABABA"><path d="M32.886 13.346h2.056v10.43h-2.056v-10.43ZM37.165 16.145h1.86v1.211c.501-.94 1.546-1.375 2.63-1.375 1.867 0 2.709 1.29 2.709 3.02v4.774h-1.889v-4.596c0-1.068-.486-1.695-1.59-1.695-1.17 0-1.86.712-1.86 1.809v4.481h-1.86v-7.629ZM45.09 16.145h1.99l2.013 5.778 1.99-5.777H52.9l-2.804 7.63h-2.179l-2.826-7.63ZM60.701 22.115c-.646 1.347-2.04 1.803-3.472 1.803-2.456 0-4.003-1.611-4.003-3.983 0-2.237 1.577-3.954 3.916-3.954 2.513 0 3.742 1.439 3.742 4.381h-5.761c0 1.29.763 2.23 2.18 2.23.842 0 1.54-.335 1.946-1.111l1.452.634Zm-1.67-2.95c-.058-1.153-.77-1.859-1.867-1.859-1.17 0-1.852.806-2.012 1.86h3.88ZM62.38 16.145h1.86v1.211c.501-.94 1.547-1.375 2.63-1.375 1.867 0 2.71 1.29 2.71 3.02v4.774h-1.89v-4.596c0-1.068-.486-1.695-1.59-1.695-1.17 0-1.86.712-1.86 1.809v4.481h-1.86v-7.629ZM75.47 23.719a4.56 4.56 0 0 1-1.278.185c-1.482 0-2.36-.755-2.36-2.272v-4.147h-1.047v-1.339h1.046v-1.574l1.86-.79v2.364h1.715v1.34H73.69v3.982c0 .598.262.969.944.969.262 0 .552-.057.836-.15v1.432ZM80.461 15.982c2.36 0 4.177 1.624 4.177 3.96 0 2.338-1.91 3.977-4.257 3.977-2.347 0-4.272-1.611-4.272-3.94 0-2.33 2.013-3.997 4.352-3.997Zm2.18 3.976c0-1.404-.727-2.572-2.253-2.572-1.526 0-2.194 1.225-2.194 2.621 0 1.397.734 2.508 2.238 2.508 1.503 0 2.208-1.226 2.208-2.558ZM85.996 16.146h1.86v1.431c.523-1.047 1.373-1.546 2.557-1.546v1.689c-1.504 0-2.557.485-2.557 2.116v3.94h-1.86v-7.63ZM94.183 23l-3.051-6.854h1.99l2.041 4.874 1.904-4.873h1.809l-4.28 10.245h-1.823L94.183 23ZM32.828 10.044l3.422-4.85h-3.076v-.956h4.687v.476l-3.34 4.85h3.244v.957h-4.936v-.477h-.001ZM40.793 5.826c1.422 0 2.516.979 2.516 2.386s-1.151 2.395-2.565 2.395c-1.413 0-2.573-.97-2.573-2.373 0-1.443 1.213-2.408 2.622-2.408Zm1.312 2.394c0-.845-.438-1.549-1.356-1.549-.918 0-1.322.738-1.322 1.58 0 .842.442 1.51 1.348 1.51.937 0 1.33-.738 1.33-1.54ZM44.127 3.843h1.12v2.811c.302-.571.92-.828 1.566-.828 1.12 0 1.68.773 1.68 1.82v2.875h-1.129V7.753c0-.661-.35-1.022-1.002-1.022-.718 0-1.116.433-1.116 1.09v2.7h-1.12V3.843ZM51.842 5.826c1.422 0 2.516.979 2.516 2.386s-1.15 2.395-2.564 2.395c-1.414 0-2.574-.97-2.574-2.373.001-1.443 1.213-2.408 2.622-2.408Zm1.313 2.394c0-.845-.438-1.549-1.357-1.549-.918 0-1.322.738-1.322 1.58 0 .842.442 1.51 1.348 1.51.937 0 1.33-.738 1.33-1.54ZM6.9 23.089a.78.78 0 0 1-.774-.637L2.733 3.578a.94.94 0 0 0-.658-.732L.56 2.384a.769.769 0 0 1-.526-.96.789.789 0 0 1 .98-.516c.004 0 .009.003.013.004l1.516.463A2.487 2.487 0 0 1 4.28 3.31l3.393 18.873a.772.772 0 0 1-.775.905ZM10.636 25.654a.778.778 0 0 1-.786-.77c0-.375.274-.695.65-.76l13.942-2.41c.52-.087.87-.57.782-1.081a.954.954 0 0 0-1.101-.767c-.004 0-.009 0-.012.002l-11.975 2.07c-1.374.238-2.685-.662-2.928-2.01L7.098 8.185c-.243-1.348.675-2.634 2.049-2.871l11.974-2.071c1.375-.238 2.686.662 2.928 2.01l1.955 10.87a.772.772 0 0 1-.65.884.785.785 0 0 1-.898-.617L22.502 5.52a.954.954 0 0 0-1.107-.76L9.42 6.832a.938.938 0 0 0-.775 1.085l2.112 11.744c.091.509.587.85 1.106.76l11.974-2.071c1.37-.26 2.697.617 2.963 1.962.266 1.343-.63 2.644-2 2.905l-.085.014-13.942 2.412a.7.7 0 0 1-.138.012Z"/><path d="M13.8 10.66a.778.778 0 0 1-.787-.77c0-.375.274-.695.65-.76l4.546-.786a.784.784 0 0 1 .91.626.772.772 0 0 1-.637.892l-4.547.786a.748.748 0 0 1-.136.012ZM8.44 27.125c-1.735 0-3.142-1.38-3.142-3.083 0-1.702 1.408-3.082 3.144-3.082 1.735 0 3.143 1.38 3.143 3.083 0 1.494-1.094 2.774-2.594 3.035a3.197 3.197 0 0 1-.55.047Zm.01-4.607a1.63 1.63 0 0 0-.275.023c-.846.148-1.41.941-1.26 1.77.151.83.96 1.384 1.805 1.236.846-.148 1.411-.94 1.26-1.77a1.548 1.548 0 0 0-1.53-1.26Z"/></g></svg>