<svg xmlns="http://www.w3.org/2000/svg" xml:space="preserve" viewBox="0 0 512 512"><path fill="#707070" d="M512.4 511.8H.4v-312h512v312zm-456-56h400v-200h-400v200z"/><circle cx="152.2" cy="355.8" r="48" fill="#707070"/><circle cx="359.2" cy="355.8" r="48" fill="#707070"/><path fill="#707070" d="M258.8 153.8h-1.4c-42.5 0-77-34.5-77-77s34.5-77 77-77h1.4c42.5 0 77 34.5 77 77s-34.5 77-77 77zm-1.4-98c-11.6 0-21 9.4-21 21s9.4 21 21 21h1.4c11.6 0 21-9.4 21-21s-9.4-21-21-21h-1.4z"/><path fill="#707070" d="M228.4 119.8h56v108h-56z"/></svg>