<svg xmlns="http://www.w3.org/2000/svg" xml:space="preserve" viewBox="0 0 512 512"><path fill="#707070" d="M.1 423.8h204.3v56H.1zM96.8 135.8h217.5v56H96.8zM96.8 255.8h114.5v56H96.8z"/><path fill="#707070" d="M0-.2h56v462.1H0z"/><path fill="#707070" d="M1.2-.2h410.2v56H1.2z"/><path fill="#707070" d="M360.8-.2h56v258h-56zM234.313 418.916l46.456-46.456 46.457 46.456-46.457 46.457zM373.389 372.575l46.456-46.456 46.457 46.456-46.457 46.456zM419.9 326.145l46.456-46.457 46.456 46.457-46.456 46.456z"/><path fill="#707070" d="m280.672 465.356 46.456-46.456 46.457 46.456-46.457 46.457z"/><path fill="#707070" d="m327.07 418.855 46.457-46.456 46.456 46.456-46.456 46.457z"/></svg>