<svg xmlns="http://www.w3.org/2000/svg" xml:space="preserve" viewBox="0 0 512 512"><path fill="#707070" d="m259.1 512.2-131.8-36.5 1.8-58.9c-6.3-5-12.3-10.3-17.9-15.9-5.5-5.5-10.8-11.4-15.7-17.6L33 385.6 0 252.9l53.9-27.7c2.4-15.2 6.4-30 12-44.1L34 130.2l96.5-96.6 51.9 32.3c14.1-5.5 28.6-9.3 43.6-11.5L255-.7 386.6 36l-2.2 61.5c5.5 4.5 10.8 9.2 16 14.3l.1.1c5.3 5.3 10.3 10.9 14.9 16.6l64.9-1.9L513 259.2l-55.1 28.2c-2.2 14.5-6 28.7-11.2 42.3l32.4 52-96.5 96.5-51.2-31.9c-14.2 5.7-29.1 9.7-44.4 12.1l-27.9 53.8zm-74.4-78.7 45.6 12.7 21.1-40.7 15.5-1.2c19.2-1.5 37.5-6.4 54.3-14.8l14-6.9 39.3 24.5 33.5-33.5-24.7-39.6 6.6-13.9c7.9-16.5 12.6-34.3 13.9-52.8l1.2-15.7 43-22-11.3-45.8-49.7 1.5-8.6-12.8c-4.9-7.2-10.7-14.3-17.4-21-6.6-6.5-13.7-12.4-21-17.4l-12.6-8.7L329 78l-45.6-12.7-22.2 42.1-15.6 1.1c-18.7 1.3-36.8 6-53.6 14.1l-13.9 6.7-39.7-24.7-33.5 33.6 24.5 39.1-7 14c-8.3 16.7-13.3 34.9-14.8 54.1l-1.2 15.6L65 282.3 76.5 328l47.4-1.7 8.7 12.8c5.4 8 11.6 15.5 18.3 22.2 6.7 6.7 14.2 12.9 22.4 18.4l12.8 8.6-1.4 45.2z"/><path fill="#707070" d="M257.3 347.2h-1.8c-50.7 0-91.9-41.2-91.9-91.9s41.2-91.9 91.9-91.9h1.8c50.7 0 91.9 41.2 91.9 91.9s-41.2 91.9-91.9 91.9zm-1.8-127.8c-19.8 0-35.9 16.1-35.9 35.9 0 19.8 16.1 35.9 35.9 35.9h1.8c19.8 0 35.9-16.1 35.9-35.9 0-19.8-16.1-35.9-35.9-35.9h-1.8z"/></svg>