<svg xmlns="http://www.w3.org/2000/svg" viewBox="0 0 1705 853"><g fill="none" stroke="#006843" stroke-miterlimit="10" opacity=".2"><path d="M1193.6 171.27V1.03h-170.23v170.24h170.23Z"/><path d="m1108.5 86.19 85.07-85.17h-85.07l-85.16 85.17h85.16Z"/><path d="m1108.5 171.25 85.07-85.07h-85.07l-85.16 85.07h85.16Zm-85.17.05V1.06H853.1v170.23h170.23Z"/><path d="M1023.34 128.77c0-23.47-19.02-42.58-42.59-42.58h-42.58v85.17h42.58c23.57-.1 42.59-19.12 42.59-42.58Z"/><path d="M1023.34 86.19V43.61c0-23.47-19.02-42.58-42.59-42.58h-42.58V86.2h85.17Z"/><path d="M853.1 43.6c0 23.47 19.02 42.58 42.58 42.58h42.58V1.02h-42.58c-23.57 0-42.58 19.02-42.58 42.58Zm85.07 42.59H853v42.79c0 23.37 18.91 42.28 42.28 42.28h42.79V86.19h.1Zm425.7 85.04V1h-170.24v170.23h170.24Z"/><path d="M1363.85 171.25V1.02h-85.17v170.23h85.17Z"/><path d="M1193.57 86.19c0 47.03 38.13 85.17 85.17 85.17V1.02c-47.04 0-85.17 38.13-85.17 85.17Zm510.83 85.08V1.04h-170.24v170.23h170.24Z"/><path d="M1590.78 114.61c-31.25 0-56.64-25.39-56.64-56.64v-.2c0-31.26 25.39-56.64 56.64-56.64v113.49Zm.01-56.95c0-31.26 25.38-56.64 56.64-56.64h.2c31.26 0 56.64 25.39 56.64 56.64h-113.48Zm56.94 0c31.26 0 56.64 25.39 56.64 56.64v.2c0 31.25-25.38 56.64-56.64 56.64V57.66Z"/><path d="M1647.73 114.61c0 31.25-25.39 56.64-56.64 56.64h-.2c-31.26 0-56.65-25.39-56.65-56.64h113.49Zm-113.6 56.69V1.07H1363.9V171.3h170.23Z"/><path d="M1534.14 128.77c0-23.47-19.02-42.58-42.58-42.58s-42.59 19.02-42.59 42.58 19.02 42.58 42.59 42.58c23.46-.1 42.58-19.12 42.58-42.58Zm0-85.17c0-23.47-19.02-42.58-42.58-42.58h-42.59v85.17h42.59c23.46 0 42.58-19.12 42.58-42.58ZM1406.39 1.63c-23.47 0-42.59 19.02-42.59 42.58v84.56c0 23.47 19.02 42.58 42.59 42.58s42.58-19.02 42.58-42.58V44.21c0-23.57-19.01-42.58-42.58-42.58Zm42.58 170.23V1.02m0 85.17h85.17m-510.85 425.64V341.6H853.06v170.23h170.23Z"/><path d="m938.17 426.65 85.17-85.07h-85.17l-85.07 85.07h85.07Zm0 85.17 85.17-85.17h-85.17l-85.07 85.17h85.07Zm595.92.02V341.6h-170.23v170.24h170.23Z"/><path d="M1534.14 469.24c0-23.47-19.02-42.58-42.58-42.58h-42.59v85.17h42.59c23.46 0 42.58-19.02 42.58-42.58Zm0-42.59v-42.58c0-23.47-19.02-42.58-42.58-42.58h-42.59v85.17h85.17Z"/><path d="M1363.91 384.17c0 23.47 19.01 42.58 42.58 42.58h42.58v-85.17h-42.58c-23.57 0-42.58 19.02-42.58 42.58Z"/><path d="M1448.97 426.65h-85.17v42.79c0 23.37 18.92 42.28 42.29 42.28h42.78v-85.07h.1Zm255.39 85.15V341.57h-170.24V511.8h170.24Z"/><path d="M1704.34 511.82V341.59h-85.17v170.23h85.17Z"/><path d="M1534.14 426.65c0 47.04 38.13 85.17 85.17 85.17V341.59c-47.04 0-85.17 38.13-85.17 85.07Zm-170.31 85.12V341.54h-170.24v170.23h170.24Z"/><path d="M1250.32 455.18c-31.26 0-56.65-25.39-56.65-56.64v-.2c0-31.26 25.39-56.64 56.65-56.64v113.49Zm0-56.95c0-31.26 25.38-56.64 56.64-56.64h.2c31.26 0 56.65 25.39 56.65 56.64h-113.49Z"/><path d="M1307.16 398.23c31.26 0 56.65 25.39 56.65 56.64v.2c0 31.26-25.39 56.64-56.65 56.64V398.22Zm0 56.95c0 31.26-25.39 56.64-56.64 56.64h-.2c-31.26 0-56.65-25.39-56.65-56.64h113.49Zm-113.6 56.62V341.57h-170.23V511.8h170.23Z"/><path d="M1193.57 469.24c0-23.47-19.02-42.58-42.58-42.58s-42.59 19.02-42.59 42.58 19.02 42.58 42.59 42.58 42.58-19.02 42.58-42.58Z"/><path d="M1193.57 384.17c0-23.47-19.02-42.58-42.58-42.58h-42.59v85.17h42.59c23.56-.1 42.58-19.12 42.58-42.58Z"/><path d="M1065.92 342.2c-23.47 0-42.58 19.02-42.58 42.58v84.56c0 23.47 19.01 42.58 42.58 42.58s42.58-19.02 42.58-42.58v-84.56c0-23.57-19.11-42.58-42.58-42.58Zm42.58 170.23V341.59m0 85.06h85.07m340.59-85.08V171.34h-170.23v170.23h170.23Z"/><path d="m1448.97 256.42 85.17-85.17h-85.17l-85.06 85.17h85.06Z"/><path d="m1448.97 341.59 85.17-85.17h-85.17l-85.06 85.17h85.06Zm-85.07-.09V171.26h-170.24V341.5h170.24Z"/><path d="M1363.91 299c0-23.47-19.02-42.58-42.59-42.58h-42.58v85.17h42.58c23.47 0 42.59-19.12 42.59-42.58Z"/><path d="M1363.91 256.42v-42.58c0-23.47-19.02-42.58-42.59-42.58h-42.58v85.17h85.17Zm-170.34-42.58c0 23.47 19.02 42.58 42.58 42.58h42.59v-85.17h-42.59c-23.46 0-42.58 19.12-42.58 42.58Zm85.17 42.58h-85.17v42.79c0 23.36 18.92 42.28 42.28 42.28h42.79v-85.07h.1Zm-255.37 85.14V171.33H853.13v170.23h170.24Z"/><path d="M1023.35 341.48V171.25h-85.17v170.23h85.17Z"/><path d="M853.1 256.42c0 47.03 38.13 85.17 85.17 85.17V171.25c-47.14 0-85.17 38.13-85.17 85.17Zm340.53 85.11V171.3H1023.4v170.23h170.23Z"/><path d="M1079.98 284.84c-31.26 0-56.64-25.39-56.64-56.64v-.2c0-31.26 25.38-56.64 56.64-56.64v113.49Zm0-56.84c0-31.26 25.39-56.64 56.64-56.64h.21c31.25 0 56.64 25.39 56.64 56.64h-113.49Z"/><path d="M1136.93 228c31.25 0 56.64 25.39 56.64 56.64v.2c0 31.26-25.39 56.64-56.64 56.64V227.99Zm0 56.84c0 31.26-25.39 56.64-56.65 56.64h-.2c-31.25 0-56.64-25.39-56.64-56.64h113.49Zm567.5 56.7V171.3H1534.2v170.24h170.23Z"/><path d="M1704.37 299c0-23.47-19.01-42.58-42.58-42.58s-42.58 19.02-42.58 42.58 19.01 42.58 42.58 42.58 42.58-19.12 42.58-42.58Z"/><path d="M1704.37 213.84c0-23.47-19.01-42.58-42.58-42.58h-42.58v85.17h42.58c23.57 0 42.58-19.02 42.58-42.58Z"/><path d="M1576.72 171.86c-23.46 0-42.58 19.02-42.58 42.58V299c0 23.47 19.02 42.58 42.58 42.58s42.59-19.02 42.59-42.58v-84.56c0-23.47-19.12-42.58-42.59-42.58Zm42.59 170.34V171.26m0 85.16h85.07M1534.13 682.1V511.86h-170.24V682.1h170.24Z"/><path d="m1448.97 596.99 85.17-85.17h-85.17l-85.06 85.17h85.06Zm0 85.07 85.17-85.07h-85.17l-85.06 85.07h85.06Zm-85.11-.03V511.8h-170.24v170.23h170.24Z"/><path d="M1363.91 639.47c0-23.47-19.02-42.58-42.59-42.58h-42.58v85.17h42.58c23.47 0 42.59-19.02 42.59-42.58Z"/><path d="M1363.91 596.99v-42.58c0-23.47-19.02-42.58-42.59-42.58h-42.58V597h85.17Zm-170.34-42.58c0 23.47 19.02 42.58 42.58 42.58h42.59v-85.17h-42.59c-23.46 0-42.58 19.02-42.58 42.58Zm85.17 42.58h-85.17v42.79c0 23.37 18.92 42.28 42.28 42.28h42.79v-85.07h.1Z"/><path d="M1193.59 682.07V511.83h-170.23v170.24h170.23Z"/><path d="M1193.58 682.08V511.85h-85.17v170.23h85.17Z"/><path d="M1023.34 596.99c0 47.03 38.13 85.17 85.16 85.17V511.93c-47.03-.1-85.16 38.03-85.16 85.07Zm681.05 85.08V511.84h-170.23v170.23h170.23Z"/><path d="M1590.78 625.41c-31.25 0-56.64-25.39-56.64-56.64v-.2c0-31.26 25.39-56.64 56.64-56.64v113.49Zm.01-56.94c0-31.26 25.38-56.64 56.64-56.64h.2c31.26 0 56.64 25.39 56.64 56.64h-113.48Z"/><path d="M1647.73 568.47c31.26 0 56.64 25.39 56.64 56.64v.2c0 31.26-25.38 56.64-56.64 56.64V568.46Zm0 56.94c0 31.26-25.39 56.64-56.64 56.64h-.2c-31.26 0-56.65-25.39-56.65-56.64h113.49Zm-624.4 56.69V511.87H853.09V682.1h170.24Z"/><path d="M1023.34 639.47c0-23.47-19.02-42.58-42.59-42.58s-42.58 19.02-42.58 42.58 19.02 42.58 42.58 42.58 42.59-19.02 42.59-42.58Z"/><path d="M1023.34 554.41c0-23.47-19.02-42.58-42.59-42.58h-42.58V597h42.58c23.57 0 42.59-19.12 42.59-42.58Zm-127.76-41.98c-23.47 0-42.58 19.02-42.58 42.58v84.56c0 23.47 19.02 42.58 42.58 42.58s42.58-19.02 42.58-42.58v-84.56c0-23.57-19.02-42.58-42.58-42.58Zm42.59 170.23V511.82m0 85.07h85.17m340.55 255.41V682.07h-170.23V852.3h170.23Z"/><path d="m1278.74 767.22 85.17-85.17h-85.17l-85.17 85.17h85.17Zm0 85.17 85.17-85.17h-85.17l-85.17 85.17h85.17Zm425.68-.05V682.11h-170.23v170.23h170.23Z"/><path d="M1704.37 809.81c0-23.47-19.01-42.58-42.58-42.58h-42.58v85.17h42.58c23.57 0 42.58-19.12 42.58-42.58Zm0-42.59v-42.58c0-23.47-19.01-42.58-42.58-42.58h-42.58v85.17h85.16Z"/><path d="M1534.14 724.64c0 23.47 19.02 42.58 42.58 42.58h42.59v-85.17h-42.59c-23.56 0-42.58 19.12-42.58 42.58Zm85.17 42.58h-85.17v42.79c0 23.36 18.92 42.28 42.28 42.28h42.79v-85.07h.1Z"/><path d="M1534.16 852.37V682.14h-170.24v170.23h170.24Z"/><path d="M1534.14 852.28V682.05h-85.17v170.23h85.17Z"/><path d="M1363.91 767.22c0 47.04 38.13 85.17 85.16 85.17V682.16c-47.13-.1-85.16 38.03-85.16 85.07Zm-340.55 85.14V682.13H853.13v170.23h170.23Z"/><path d="M909.74 795.65c-31.26 0-56.64-25.39-56.64-56.64v-.2c0-31.26 25.39-56.64 56.64-56.64v113.49Zm.01-56.85c0-31.26 25.39-56.64 56.64-56.64h.2c31.26 0 56.65 25.39 56.65 56.64H909.75Z"/><path d="M966.69 738.8c31.26 0 56.65 25.39 56.65 56.64v.2c0 31.26-25.39 56.64-56.65 56.64V738.79Z"/><path d="M966.69 795.65c0 31.26-25.39 56.64-56.64 56.64h-.2c-31.26 0-56.64-25.39-56.64-56.64H966.7Zm226.94 56.68V682.1h-170.24v170.23h170.24Z"/><path d="M1193.57 809.81c0-23.47-19.02-42.58-42.58-42.58s-42.59 19.02-42.59 42.58 19.02 42.58 42.59 42.58 42.58-19.12 42.58-42.58Zm0-85.17c0-23.47-19.02-42.58-42.58-42.58h-42.59v85.17h42.59c23.56 0 42.58-19.02 42.58-42.58Z"/><path d="M1065.92 682.66c-23.47 0-42.58 19.02-42.58 42.58v84.56c0 23.47 19.01 42.58 42.58 42.58s42.58-19.02 42.58-42.58v-84.56c0-23.47-19.11-42.58-42.58-42.58ZM1108.5 853V682.06m0 85.16h85.07"/></g><g fill="none" stroke="#006843" stroke-miterlimit="10" opacity=".2"><path d="M342.6 171.27V1.03H172.36v170.24H342.6Z"/><path d="m257.5 86.19 85.07-85.17H257.5l-85.17 85.17h85.17Z"/><path d="m257.5 171.25 85.07-85.07H257.5l-85.17 85.07h85.17Z"/><path d="M172.33 171.3V1.06H2.1v170.23h170.23Z"/><path d="M172.34 128.77c0-23.47-19.02-42.58-42.58-42.58H87.18v85.17h42.58c23.57-.1 42.58-19.12 42.58-42.58Z"/><path d="M172.34 86.19V43.61c0-23.47-19.02-42.58-42.58-42.58H87.18V86.2h85.17Z"/><path d="M2.1 43.6c0 23.47 19.02 42.58 42.58 42.58h42.58V1.02H44.68C21.12 1.02 2.1 20.03 2.1 43.6Zm85.07 42.59H2v42.79c0 23.37 18.92 42.28 42.28 42.28h42.79V86.19h.1Zm425.69 85.04V1H342.63v170.23h170.23Z"/><path d="M512.85 171.25V1.02h-85.17v170.23h85.17Z"/><path d="M342.57 86.19c0 47.03 38.13 85.17 85.17 85.17V1.02c-47.03 0-85.17 38.13-85.17 85.17Zm510.83 85.08V1.04H683.17v170.23H853.4Z"/><path d="M739.78 114.61c-31.26 0-56.64-25.39-56.64-56.64v-.2c0-31.26 25.39-56.64 56.64-56.64v113.49Z"/><path d="M739.78 57.66c0-31.26 25.39-56.64 56.64-56.64h.2c31.26 0 56.64 25.39 56.64 56.64H739.77Zm56.95 0c31.26 0 56.64 25.39 56.64 56.64v.2c0 31.25-25.39 56.64-56.64 56.64V57.66Z"/><path d="M796.73 114.61c0 31.25-25.39 56.64-56.64 56.64h-.2c-31.26 0-56.64-25.39-56.64-56.64h113.49Zm-113.6 56.69V1.07H512.9V171.3h170.23Z"/><path d="M683.14 128.77c0-23.47-19.02-42.58-42.58-42.58s-42.58 19.02-42.58 42.58 19.02 42.58 42.58 42.58c23.47-.1 42.58-19.12 42.58-42.58Zm0-85.17c0-23.47-19.02-42.58-42.58-42.58h-42.58v85.17h42.58c23.47 0 42.58-19.12 42.58-42.58ZM555.39 1.63c-23.47 0-42.58 19.02-42.58 42.58v84.56c0 23.47 19.02 42.58 42.58 42.58s42.58-19.02 42.58-42.58V44.21c0-23.57-19.02-42.58-42.58-42.58Zm42.58 170.23V1.02m0 85.17h85.17M172.29 511.83V341.6H2.06v170.23h170.23Z"/><path d="m87.17 426.65 85.17-85.07H87.17L2.1 426.65h85.07Zm0 85.17 85.17-85.17H87.17L2.1 511.82h85.07Zm595.92.02V341.6H512.86v170.24h170.23Z"/><path d="M683.14 469.24c0-23.47-19.02-42.58-42.58-42.58h-42.58v85.17h42.58c23.47 0 42.58-19.02 42.58-42.58Zm0-42.59v-42.58c0-23.47-19.02-42.58-42.58-42.58h-42.58v85.17h85.17Z"/><path d="M512.91 384.17c0 23.47 19.02 42.58 42.58 42.58h42.58v-85.17h-42.58c-23.57 0-42.58 19.02-42.58 42.58Z"/><path d="M597.97 426.65H512.8v42.79c0 23.37 18.91 42.28 42.28 42.28h42.79v-85.07h.1Zm255.39 85.15V341.57H683.13V511.8h170.23Z"/><path d="M853.34 511.82V341.59h-85.17v170.23h85.17Z"/><path d="M683.14 426.65c0 47.04 38.13 85.17 85.17 85.17V341.59c-47.04 0-85.17 38.13-85.17 85.07Zm-170.31 85.12V341.54H342.6v170.23h170.23Z"/><path d="M399.32 455.18c-31.26 0-56.64-25.39-56.64-56.64v-.2c0-31.26 25.39-56.64 56.64-56.64v113.49Z"/><path d="M399.32 398.23c0-31.26 25.39-56.64 56.64-56.64h.2c31.26 0 56.64 25.39 56.64 56.64H399.31Z"/><path d="M456.16 398.23c31.26 0 56.64 25.39 56.64 56.64v.2c0 31.26-25.39 56.64-56.64 56.64V398.22Z"/><path d="M456.16 455.18c0 31.26-25.39 56.64-56.64 56.64h-.2c-31.26 0-56.64-25.39-56.64-56.64h113.49Zm-113.6 56.62V341.57H172.32V511.8h170.24Z"/><path d="M342.57 469.24c0-23.47-19.02-42.58-42.58-42.58s-42.58 19.02-42.58 42.58 19.02 42.58 42.58 42.58 42.58-19.02 42.58-42.58Z"/><path d="M342.57 384.17c0-23.47-19.02-42.58-42.58-42.58h-42.58v85.17h42.58c23.57-.1 42.58-19.12 42.58-42.58Z"/><path d="M214.92 342.2c-23.47 0-42.58 19.02-42.58 42.58v84.56c0 23.47 19.02 42.58 42.58 42.58s42.58-19.02 42.58-42.58v-84.56c0-23.57-19.12-42.58-42.58-42.58Zm42.58 170.23V341.59m0 85.06h85.07m340.59-85.08V171.34H512.93v170.23h170.23Z"/><path d="m597.97 256.42 85.17-85.17h-85.17l-85.07 85.17h85.07Z"/><path d="m597.97 341.59 85.17-85.17h-85.17l-85.07 85.17h85.07Zm-85.07-.09V171.26H342.67V341.5H512.9Z"/><path d="M512.91 299c0-23.47-19.02-42.58-42.58-42.58h-42.58v85.17h42.58c23.47 0 42.58-19.12 42.58-42.58Z"/><path d="M512.91 256.42v-42.58c0-23.47-19.02-42.58-42.58-42.58h-42.58v85.17h85.17Zm-170.34-42.58c0 23.47 19.02 42.58 42.58 42.58h42.58v-85.17h-42.58c-23.47 0-42.58 19.12-42.58 42.58Zm85.17 42.58h-85.17v42.79c0 23.36 18.91 42.28 42.28 42.28h42.79v-85.07h.1Zm-255.37 85.14V171.33H2.13v170.23h170.23Z"/><path d="M172.35 341.48V171.25H87.18v170.23h85.17Z"/><path d="M2.1 256.42c0 47.03 38.13 85.17 85.17 85.17V171.25c-47.14 0-85.17 38.13-85.17 85.17Zm340.53 85.11V171.3H172.39v170.23h170.24Z"/><path d="M228.98 284.84c-31.26 0-56.64-25.39-56.64-56.64v-.2c0-31.26 25.39-56.64 56.64-56.64v113.49Z"/><path d="M228.98 228c0-31.26 25.39-56.64 56.64-56.64h.2c31.26 0 56.64 25.39 56.64 56.64H228.97Z"/><path d="M285.93 228c31.26 0 56.64 25.39 56.64 56.64v.2c0 31.26-25.39 56.64-56.64 56.64V227.99Z"/><path d="M285.93 284.84c0 31.26-25.39 56.64-56.64 56.64h-.2c-31.25 0-56.64-25.39-56.64-56.64h113.49Zm567.5 56.7V171.3H683.2v170.24h170.23Z"/><path d="M853.38 299c0-23.47-19.02-42.58-42.58-42.58s-42.58 19.02-42.58 42.58 19.02 42.58 42.58 42.58 42.58-19.12 42.58-42.58Z"/><path d="M853.38 213.84c0-23.47-19.02-42.58-42.58-42.58h-42.58v85.17h42.58c23.57 0 42.58-19.02 42.58-42.58Z"/><path d="M725.72 171.86c-23.47 0-42.58 19.02-42.58 42.58V299c0 23.47 19.02 42.58 42.58 42.58S768.3 322.56 768.3 299v-84.56c0-23.47-19.12-42.58-42.58-42.58Zm42.59 170.34V171.26m0 85.16h85.07M683.12 682.1V511.86H512.89V682.1h170.23Z"/><path d="m597.97 596.99 85.17-85.17h-85.17l-85.07 85.17h85.07Zm0 85.07 85.17-85.07h-85.17l-85.07 85.07h85.07Zm-85.11-.03V511.8H342.63v170.23h170.23Z"/><path d="M512.91 639.47c0-23.47-19.02-42.58-42.58-42.58h-42.58v85.17h42.58c23.47 0 42.58-19.02 42.58-42.58Z"/><path d="M512.91 596.99v-42.58c0-23.47-19.02-42.58-42.58-42.58h-42.58V597h85.17Zm-170.34-42.58c0 23.47 19.02 42.58 42.58 42.58h42.58v-85.17h-42.58c-23.47 0-42.58 19.02-42.58 42.58Zm85.17 42.58h-85.17v42.79c0 23.37 18.91 42.28 42.28 42.28h42.79v-85.07h.1Z"/><path d="M342.59 682.07V511.83H172.35v170.24h170.24Z"/><path d="M342.58 682.08V511.85h-85.17v170.23h85.17Z"/><path d="M172.34 596.99c0 47.03 38.13 85.17 85.17 85.17V511.93c-47.04-.1-85.17 38.03-85.17 85.07Zm681.05 85.08V511.84H683.16v170.23h170.23Z"/><path d="M739.78 625.41c-31.26 0-56.64-25.39-56.64-56.64v-.2c0-31.26 25.39-56.64 56.64-56.64v113.49Z"/><path d="M739.78 568.47c0-31.26 25.39-56.64 56.64-56.64h.2c31.26 0 56.64 25.39 56.64 56.64H739.77Z"/><path d="M796.73 568.47c31.26 0 56.64 25.39 56.64 56.64v.2c0 31.26-25.39 56.64-56.64 56.64V568.46Z"/><path d="M796.73 625.41c0 31.26-25.39 56.64-56.64 56.64h-.2c-31.26 0-56.64-25.39-56.64-56.64h113.49Zm-624.4 56.69V511.87H2.09V682.1h170.23Z"/><path d="M172.34 639.47c0-23.47-19.02-42.58-42.58-42.58s-42.58 19.02-42.58 42.58 19.02 42.58 42.58 42.58 42.58-19.02 42.58-42.58Z"/><path d="M172.34 554.41c0-23.47-19.02-42.58-42.58-42.58H87.18V597h42.58c23.57 0 42.58-19.12 42.58-42.58ZM44.58 512.43C21.11 512.43 2 531.45 2 555.01v84.56c0 23.47 19.02 42.58 42.58 42.58s42.58-19.02 42.58-42.58v-84.56c0-23.57-19.02-42.58-42.58-42.58Zm42.59 170.23V511.82m0 85.07h85.17M512.89 852.3V682.07H342.66V852.3h170.23Z"/><path d="m427.74 767.22 85.17-85.17h-85.17l-85.17 85.17h85.17Zm0 85.17 85.17-85.17h-85.17l-85.17 85.17h85.17Zm425.68-.05V682.11H683.19v170.23h170.23Z"/><path d="M853.38 809.81c0-23.47-19.02-42.58-42.58-42.58h-42.58v85.17h42.58c23.57 0 42.58-19.12 42.58-42.58Zm0-42.59v-42.58c0-23.47-19.02-42.58-42.58-42.58h-42.58v85.17h85.17Z"/><path d="M683.14 724.64c0 23.47 19.02 42.58 42.58 42.58h42.58v-85.17h-42.58c-23.57 0-42.58 19.12-42.58 42.58Zm85.17 42.58h-85.17v42.79c0 23.36 18.92 42.28 42.28 42.28h42.79v-85.07h.1Z"/><path d="M683.16 852.37V682.14H512.93v170.23h170.23Z"/><path d="M683.14 852.28V682.05h-85.17v170.23h85.17Z"/><path d="M512.91 767.22c0 47.04 38.13 85.17 85.17 85.17V682.16c-47.14-.1-85.17 38.03-85.17 85.07Zm-340.55 85.14V682.13H2.12v170.23h170.23Z"/><path d="M58.75 795.65c-31.26 0-56.64-25.39-56.64-56.64v-.2c0-31.26 25.39-56.64 56.64-56.64v113.49Zm0-56.85c0-31.26 25.39-56.64 56.64-56.64h.2c31.25 0 56.64 25.39 56.64 56.64H58.75Z"/><path d="M115.69 738.8c31.26 0 56.64 25.39 56.64 56.64v.2c0 31.26-25.39 56.64-56.64 56.64V738.79Z"/><path d="M115.69 795.65c0 31.26-25.39 56.64-56.64 56.64h-.2c-31.26 0-56.64-25.39-56.64-56.64H115.7Zm226.93 56.68V682.1H172.39v170.23h170.23Z"/><path d="M342.57 809.81c0-23.47-19.02-42.58-42.58-42.58s-42.58 19.02-42.58 42.58 19.02 42.58 42.58 42.58 42.58-19.12 42.58-42.58Zm0-85.17c0-23.47-19.02-42.58-42.58-42.58h-42.58v85.17h42.58c23.57 0 42.58-19.02 42.58-42.58Z"/><path d="M214.92 682.66c-23.47 0-42.58 19.02-42.58 42.58v84.56c0 23.47 19.02 42.58 42.58 42.58s42.58-19.02 42.58-42.58v-84.56c0-23.47-19.12-42.58-42.58-42.58ZM257.5 853V682.06m0 85.16h85.07"/></g></svg>