<svg xmlns="http://www.w3.org/2000/svg" width="27" height="33" viewBox="0 0 27 33" fill="none">
  <path d="M12.0472 0.0291595C8.59822 0.300529 5.99259 1.9596 4.57334 4.7905C4.32159 5.29007 4.08557 5.86057 4.08557 5.96233C4.08557 5.987 4.07298 6.00859 4.0604 6.00859C4.04781 6.00859 4.03522 6.03326 4.03207 6.06101C4.02893 6.1196 4.01319 6.17819 3.98172 6.25529C3.92823 6.40023 3.73627 7.14033 3.69536 7.36545C3.68592 7.42404 3.67018 7.5073 3.66074 7.54739C3.65445 7.59056 3.63871 7.69233 3.62927 7.77559C3.61983 7.86193 3.6041 7.93903 3.5978 7.94828C3.57263 7.98837 3.52228 8.53111 3.50969 8.9135C3.50654 8.99676 3.49396 9.06152 3.47822 9.06152C3.46563 9.06152 3.46878 9.08927 3.48766 9.12319C3.51284 9.16637 3.51284 9.18487 3.48766 9.18487C3.46563 9.18487 3.46249 9.20337 3.48451 9.24346C3.5034 9.2743 3.50969 9.30822 3.50025 9.31747C3.49081 9.32672 3.48451 10.5263 3.48766 11.9849L3.49081 14.637L3.40899 14.6986C3.36493 14.7326 3.19185 14.7912 3.02192 14.8313C2.52157 14.9423 2.18485 15.0595 1.87645 15.226C1.53344 15.411 1.40757 15.5066 1.1212 15.7903C0.472938 16.4317 0.0701356 17.5172 0.0103446 18.7754C-0.00538983 19.0807 -0.00224294 29.0945 0.0134915 29.4122C0.0386667 29.9518 0.101605 30.3959 0.158249 30.4699C0.180277 30.4946 0.180277 30.5069 0.155102 30.5069C0.133073 30.5069 0.12678 30.5223 0.142514 30.547C0.155102 30.5655 0.167689 30.5963 0.170836 30.6148C0.173983 30.6303 0.205452 30.7197 0.243215 30.806C0.277831 30.8955 0.296712 30.9695 0.284124 30.9695C0.271537 30.9695 0.277831 30.9818 0.293565 30.9941C0.325034 31.0157 0.41 31.1823 0.41 31.2162C0.41 31.2254 0.428881 31.2532 0.454057 31.2809C0.479232 31.3087 0.491819 31.3364 0.482379 31.3457C0.472938 31.3549 0.50126 31.3981 0.545316 31.4444C0.586226 31.4875 0.623989 31.5338 0.623989 31.54C0.623989 31.5831 0.888328 31.9008 1.00791 32.0025C1.08344 32.0673 1.1149 32.1012 1.08029 32.0765C1.02364 32.0365 1.0205 32.0365 1.06141 32.0858C1.08344 32.1166 1.1149 32.1413 1.13064 32.1413C1.14637 32.1413 1.18414 32.166 1.2156 32.1937C1.33833 32.3078 1.42645 32.3695 1.59638 32.4589C2.14709 32.7488 2.4366 32.8321 3.23591 32.9308C3.58522 32.9708 4.68663 32.977 13.0574 32.9739C22.8316 32.9739 22.8851 32.9739 23.4862 32.8537C24.1816 32.7149 24.7355 32.4404 25.1572 32.021C25.6638 31.5215 25.9061 30.9664 26.0037 30.0906C26.0414 29.7606 26.0509 28.8355 26.0509 23.8605C26.0509 21.2023 26.0446 19.0098 26.0383 18.9882C26.0289 18.9635 26.0163 18.7939 26.0068 18.612C25.9942 18.4269 25.9817 18.2666 25.9754 18.2542C25.9659 18.2419 25.9533 18.171 25.9439 18.097C25.8904 17.656 25.7047 17.0423 25.5128 16.6692C25.4184 16.4934 25.1761 16.1264 25.0785 16.0185C24.8834 15.8057 24.5781 15.5251 24.5309 15.5128C24.49 15.5035 24.4145 15.4203 24.4114 15.3771C24.4114 15.3555 24.3988 15.3647 24.3862 15.3987C24.361 15.4573 24.361 15.4573 24.339 15.3894C24.3232 15.3462 24.2981 15.3247 24.2729 15.3339C24.2477 15.3432 24.2131 15.3277 24.1942 15.3031C24.1722 15.2784 24.1344 15.2599 24.1124 15.2599C24.0872 15.2599 24.0683 15.2445 24.0683 15.2291C24.0683 15.2106 24.0463 15.1982 24.0211 15.1982C23.996 15.1982 23.9739 15.1828 23.9739 15.1674C23.9739 15.1489 23.9456 15.1365 23.911 15.1365C23.8764 15.1365 23.8481 15.1211 23.8481 15.1026C23.8481 15.0872 23.8355 15.081 23.8166 15.0903C23.8009 15.0995 23.7851 15.0934 23.7851 15.0749C23.7851 15.0564 23.7725 15.0502 23.7537 15.0595C23.7379 15.0687 23.7222 15.0656 23.7222 15.0471C23.7222 15.0317 23.697 15.0224 23.6687 15.0286C23.6372 15.0317 23.5743 15.0163 23.5271 14.9947C23.4799 14.97 23.4295 14.9546 23.4169 14.9546C23.4043 14.9577 23.3666 14.9515 23.3383 14.9423C23.1935 14.8868 23.1683 14.8806 23.1211 14.8713C23.0928 14.8652 23.0362 14.8467 22.9953 14.8313C22.9543 14.8158 22.9103 14.8066 22.9008 14.8097C22.8883 14.8097 22.8473 14.785 22.8064 14.7511C22.7624 14.711 22.7435 14.7079 22.7592 14.7357C22.7718 14.7603 22.7466 14.7418 22.7026 14.6956L22.6208 14.6092V11.9973C22.6176 10.5602 22.6113 9.2743 22.605 9.13861C22.583 8.77781 22.561 8.50336 22.5452 8.39851C22.5358 8.3245 22.4634 7.87735 22.4194 7.61215C22.3533 7.22668 22.325 7.08791 22.3061 7.08791C22.2935 7.08791 22.2872 7.05707 22.2903 7.01698C22.2935 6.97997 22.2872 6.93372 22.2746 6.9183C22.2589 6.8998 22.24 6.84429 22.2337 6.79495C22.2054 6.6531 22.1896 6.58525 22.155 6.49891C22.1362 6.45265 22.1299 6.40948 22.1362 6.40022C22.1456 6.39097 22.1299 6.33238 22.1047 6.27071C22.0764 6.20595 22.0543 6.12577 22.0543 6.08876C22.0543 6.03942 22.048 6.03326 22.026 6.06718C22.004 6.09802 21.9914 6.07026 21.9757 5.9685C21.9631 5.88832 21.9379 5.82356 21.9222 5.82356C21.9033 5.82356 21.897 5.79581 21.9064 5.76188C21.9159 5.72796 21.9096 5.70021 21.8938 5.70021C21.8781 5.70021 21.8655 5.67862 21.8655 5.65395C21.8655 5.62928 21.8529 5.6077 21.834 5.6077C21.8183 5.6077 21.8152 5.58611 21.8246 5.55527C21.8403 5.52135 21.834 5.5121 21.8057 5.5306C21.7743 5.54911 21.7711 5.53677 21.7868 5.48435C21.8026 5.43192 21.7994 5.41959 21.7711 5.43809C21.7459 5.45351 21.7365 5.45042 21.7522 5.42884C21.7743 5.39492 21.6641 5.14205 21.4501 4.72882C21.3809 4.59314 21.2771 4.39886 21.2267 4.29709C21.1732 4.19533 21.1197 4.1059 21.1071 4.09665C21.0977 4.0874 21.0568 4.01956 21.0159 3.94555C20.9781 3.87153 20.934 3.79444 20.9183 3.77594C20.8239 3.66492 20.654 3.42747 20.5879 3.31646C20.547 3.24553 20.5124 3.19927 20.5124 3.21161C20.5124 3.22394 20.4935 3.21778 20.4683 3.19619C20.4431 3.1746 20.4305 3.14685 20.44 3.13451C20.4463 3.12218 20.4179 3.07592 20.3739 3.03275C20.3267 2.98958 20.2921 2.93715 20.2921 2.91865C20.2921 2.90015 20.2826 2.89398 20.27 2.90323C20.2606 2.91557 20.2291 2.89706 20.2071 2.86314C20.1819 2.82922 20.1473 2.80763 20.1316 2.81688C20.1158 2.82922 20.1033 2.81072 20.1033 2.77988C20.1033 2.74596 20.0403 2.65961 19.9616 2.5856C19.8861 2.51159 19.8295 2.44067 19.8389 2.42525C19.8484 2.41291 19.8263 2.40058 19.7917 2.40058C19.7571 2.40058 19.7225 2.37282 19.7099 2.3389C19.7005 2.30498 19.669 2.27723 19.6438 2.27723C19.6186 2.27723 19.5998 2.25564 19.5998 2.23097C19.5998 2.2063 19.5777 2.18471 19.5494 2.18471C19.5242 2.18471 19.5116 2.16929 19.5211 2.15388C19.5305 2.13537 19.5179 2.12304 19.4928 2.12304C19.4644 2.12304 19.4424 2.10762 19.4424 2.08912C19.4424 2.0737 19.433 2.06445 19.4204 2.07061C19.4046 2.07986 19.3763 2.06753 19.3543 2.04286C19.3323 2.01819 19.326 1.99969 19.3386 1.99969C19.3512 1.9966 19.326 1.97502 19.2788 1.95035C19.2284 1.92568 19.1907 1.89175 19.1907 1.87634C19.1907 1.85783 19.1686 1.8455 19.1435 1.8455C19.1183 1.8455 19.0963 1.83008 19.0963 1.81466C19.0963 1.79616 19.0805 1.78382 19.0648 1.78382C19.0459 1.78382 18.9987 1.7499 18.9578 1.70673C18.9169 1.66356 18.876 1.62963 18.8634 1.62963C18.8414 1.62963 18.6525 1.5032 18.6242 1.47236C18.6148 1.46311 18.5644 1.43227 18.5078 1.40452C18.4543 1.37676 18.3913 1.33668 18.3662 1.31509C18.3095 1.26267 18.1805 1.18557 17.9162 1.05297C17.7966 0.994377 17.6864 0.929619 17.677 0.9142C17.6676 0.898781 17.6487 0.886448 17.6392 0.886448C17.6267 0.886448 17.5574 0.861778 17.485 0.83094C16.3081 0.343704 15.3924 0.124756 14.1116 0.0260735C13.6395 -0.0109329 12.5255 -0.00784683 12.0472 0.0291595ZM13.542 3.77285C13.8661 3.80369 13.9826 3.81911 14.2972 3.86845C14.5805 3.91471 15.1878 4.07506 15.2854 4.13057C15.3389 4.15833 15.5182 4.22617 15.534 4.22308C15.5654 4.21075 16.3931 4.67948 16.4529 4.74733C16.4623 4.75658 16.5252 4.80283 16.5913 4.85526C16.6606 4.9046 16.7455 4.97244 16.7801 5.00636C16.8179 5.04028 16.8903 5.10196 16.9406 5.13896C16.9941 5.17905 17.013 5.20372 16.9878 5.19139C16.9627 5.17905 16.9847 5.20989 17.0382 5.25923C17.1231 5.33324 17.3466 5.5892 17.5322 5.82664C17.5637 5.86673 17.6172 5.95 17.6518 6.00859C17.6864 6.06718 17.7399 6.15661 17.7746 6.20903C17.8343 6.30154 18.0043 6.59759 18.0106 6.62534C18.0137 6.63459 18.042 6.69627 18.0735 6.76411C18.105 6.83195 18.1302 6.89671 18.127 6.90905C18.1239 6.92447 18.1333 6.93372 18.1459 6.93372C18.1616 6.93372 18.1742 6.95222 18.1774 6.97072C18.1837 7.06015 18.2686 7.24209 18.2938 7.22051C18.3064 7.20509 18.3095 7.21126 18.2969 7.23284C18.2844 7.25443 18.319 7.38703 18.3693 7.53197C18.4197 7.67382 18.4543 7.80026 18.4448 7.80951C18.4354 7.81876 18.4448 7.84651 18.4669 7.87427C18.4889 7.90202 18.4983 7.92978 18.4889 7.94211C18.4763 7.95136 18.4826 7.97912 18.5015 8.00379C18.5298 8.03462 18.5267 8.04387 18.4952 8.04387C18.4669 8.04696 18.47 8.05929 18.5109 8.09013C18.5455 8.1148 18.5581 8.13639 18.5361 8.13639C18.5109 8.13639 18.5078 8.15797 18.533 8.21965C18.5518 8.26899 18.5707 8.33375 18.577 8.36767C18.6022 8.51877 18.662 8.99368 18.6683 9.07694C18.6683 9.12628 18.684 9.1787 18.7029 9.19104C18.7249 9.20646 18.7218 9.21571 18.7029 9.21571C18.684 9.21571 18.6683 9.24346 18.6683 9.27738C18.6683 9.3113 18.6809 9.33906 18.6966 9.33906C18.7123 9.33906 18.7092 9.35756 18.6903 9.38223C18.662 9.41615 18.662 9.42849 18.6934 9.44391C18.7249 9.45933 18.7249 9.46549 18.6966 9.48091C18.6368 9.50558 18.6462 9.55492 18.7123 9.55492C18.7438 9.55492 18.7532 9.56417 18.7312 9.57959C18.6809 9.61043 18.6746 10.2642 18.7218 10.2642C18.7469 10.2642 18.7501 10.2765 18.7218 10.3043C18.6966 10.3351 18.684 10.9673 18.6809 12.4845L18.6714 14.6246L18.5644 14.6863C18.4574 14.748 18.3882 14.748 13.1612 14.7603C9.33459 14.7696 7.86499 14.7634 7.84926 14.7387C7.83667 14.7202 7.78002 14.7048 7.72338 14.7048C7.50625 14.7048 7.51883 14.8868 7.51569 11.914C7.51254 10.4369 7.51254 9.22496 7.51569 9.21571C7.51883 9.20646 7.52513 9.11703 7.53142 9.01526C7.54401 8.81482 7.56289 8.65446 7.61324 8.36767C7.63212 8.26591 7.651 8.14872 7.65415 8.10555C7.66044 8.06238 7.67303 8.00687 7.68562 7.97912C7.69821 7.95136 7.71079 7.89585 7.71709 7.85268C7.72023 7.81259 7.73282 7.76634 7.74226 7.75092C7.7517 7.73241 7.77058 7.66457 7.78317 7.59673C7.80835 7.46721 7.93108 7.10641 8.0066 6.94297C8.03178 6.89054 8.05066 6.83812 8.05066 6.8227C8.05066 6.72094 8.64227 5.72488 8.82794 5.51518C8.94123 5.38567 9.44788 4.89843 9.58005 4.7905C9.92621 4.50371 10.8325 4.05039 11.1755 3.9918C11.1976 3.98872 11.2636 3.97021 11.3234 3.94863C11.5059 3.89004 12.1825 3.78827 12.5255 3.76977C12.7049 3.75743 12.8528 3.74818 12.856 3.7451C12.8686 3.73585 13.3469 3.75435 13.542 3.77285Z" fill="black"/>
</svg>